<svg data-v-423bf9ae="" xmlns="http://www.w3.org/2000/svg" viewBox="0 0 453 90" class="iconLeft"><!----><!----><!----><g data-v-423bf9ae="" id="e234a9b4-801e-4f30-9586-be01224db8cf" fill="#333333" transform="matrix(4.803843162490988,0,0,4.803843162490988,137.77284670254562,-5.704564232295205)"><path d="M8.39 11.84C8.34 10.61 7.77 9.84 6.79 9.55C7.84 9.16 8.47 8.26 8.47 7.06C8.47 5.38 7.27 4.31 5.38 4.31L1.02 4.31L1.02 14L2.55 14L2.55 10.23L5.35 10.23C6.27 10.23 6.83 10.95 6.86 12.03C6.87 12.82 6.92 13.66 6.99 14L8.58 14C8.47 13.65 8.41 12.74 8.39 11.84ZM5.22 9.00L2.55 9.00L2.55 5.67L5.22 5.67C6.26 5.67 6.90 6.30 6.90 7.32C6.90 8.34 6.26 9.00 5.22 9.00ZM16.27 7.11L14.84 7.11L14.84 11.16C14.84 12.24 14.15 12.94 13.12 12.94C12.08 12.94 11.41 12.24 11.41 11.16L11.41 7.11L9.98 7.11L9.98 11.16C9.98 12.92 11.26 14.13 13.13 14.13C14.99 14.13 16.27 12.92 16.27 11.16ZM21.91 6.99C20.87 6.99 19.99 7.41 19.39 8.11L19.39 7.11L17.96 7.11L17.96 16.80L19.39 16.80L19.39 13.01C19.99 13.71 20.87 14.13 21.91 14.13C23.86 14.13 25.27 12.63 25.27 10.56C25.27 8.48 23.86 6.99 21.91 6.99ZM21.60 12.88C20.31 12.88 19.39 11.91 19.39 10.56C19.39 9.21 20.31 8.23 21.60 8.23C22.88 8.23 23.80 9.21 23.80 10.56C23.80 11.91 22.88 12.88 21.60 12.88ZM33.57 10.57C33.56 8.48 32.03 6.99 29.90 6.99C27.78 6.99 26.22 8.48 26.22 10.56C26.22 12.63 27.78 14.13 29.90 14.13C31.60 14.13 33.07 13.03 33.46 11.51L32.00 11.51C31.74 12.33 30.90 12.95 29.92 12.95C28.73 12.95 27.82 12.15 27.64 11.00L33.53 11.00C33.56 10.86 33.57 10.71 33.57 10.57ZM29.92 8.16C31.05 8.16 31.96 8.88 32.20 9.90L27.68 9.90C27.93 8.86 28.80 8.16 29.92 8.16ZM41.86 10.57C41.85 8.48 40.32 6.99 38.19 6.99C36.06 6.99 34.51 8.48 34.51 10.56C34.51 12.63 36.06 14.13 38.19 14.13C39.89 14.13 41.36 13.03 41.75 11.51L40.29 11.51C40.03 12.33 39.19 12.95 38.21 12.95C37.02 12.95 36.11 12.15 35.92 11.00L41.82 11.00C41.85 10.86 41.86 10.71 41.86 10.57ZM38.21 8.16C39.34 8.16 40.25 8.88 40.49 9.90L35.97 9.90C36.22 8.86 37.09 8.16 38.21 8.16ZM51.20 4.31L47.19 4.31L47.19 14L48.72 14L48.72 10.58L51.20 10.58C53.10 10.58 54.42 9.31 54.42 7.43C54.42 5.57 53.10 4.31 51.20 4.31ZM51.04 9.28L48.72 9.28L48.72 5.67L51.04 5.67C52.14 5.67 52.85 6.37 52.85 7.46C52.85 8.54 52.14 9.28 51.04 9.28ZM60.87 7.11L60.87 8.11C60.27 7.41 59.39 6.99 58.37 6.99C56.42 6.99 54.99 8.48 54.99 10.56C54.99 12.63 56.42 14.13 58.37 14.13C59.39 14.13 60.27 13.71 60.87 13.01L60.87 14L62.30 14L62.30 7.11ZM58.66 12.88C57.39 12.88 56.46 11.91 56.46 10.56C56.46 9.21 57.39 8.23 58.66 8.23C59.95 8.23 60.87 9.21 60.87 10.56C60.87 11.91 59.95 12.88 58.66 12.88ZM64.06 4.31L64.06 14L65.49 14L65.49 4.31Z"></path></g><!----><g data-v-423bf9ae="" id="7bf83b62-9e9e-4236-920a-fddadbba9b68" transform="matrix(1.3940086066720616,0,0,1.3940086066720616,-7.70043033360308,-23.981437696001635)" stroke="none" fill="#22cc9d"><path d="M87.063 17.719c3.802 0 6.937 3.124 6.937 6.937v50.688c0 3.813-3.135 6.937-6.938 6.937H24.844c-3.808 0-6.938-3.13-6.938-6.937V64.219H8a2.05 2.05 0 0 1-1.406-.594A1.92 1.92 0 0 1 6.156 63 2.09 2.09 0 0 1 6 62.219V51.906a2.052 2.052 0 0 1 .594-1.406A2.048 2.048 0 0 1 8 49.906h9.906v-11.03c0-3.81 3.13-6.938 6.938-6.938h6.031v-12.22c0-.26.025-.507.125-.75.1-.241.252-.47.438-.655a2.049 2.049 0 0 1 1.437-.594h54.188zm0 4H34.874v10.219h52.188c1.048 0 2.042.232 2.937.656v-7.938a2.937 2.937 0 0 0-2.938-2.937zm-57.25 32.187H10v6.313h19.813v-6.313zm54.656 1.75c-.267 0-.535.053-.781.157-.247.103-.47.246-.657.437-.186.19-.34.408-.437.656a2.013 2.013 0 0 0-.156.782c.075 6.479.304 10.692-.25 12.187-.278.748-.401.886-1.25 1.156-.85.27-2.484.391-4.97.188a2.013 2.013 0 0 0-.78.094 2.123 2.123 0 0 0-.72.375c-.202.17-.346.359-.468.594a2.135 2.135 0 0 0-.219.78c-.021.264.012.53.094.782.082.251.203.487.375.688.172.2.389.35.625.468.236.118.486.201.75.219 2.705.222 4.76.189 6.531-.375a6.026 6.026 0 0 0 3.781-3.594c1.219-3.287.575-7.273.5-13.594.002-.261-.025-.539-.124-.78a1.92 1.92 0 0 0-.438-.626 2.05 2.05 0 0 0-1.406-.594z" style="text-indent:0;text-transform:none;block-progression:tb" overflow="visible" color="#000"></path></g><!----></svg>