<svg xmlns="http://www.w3.org/2000/svg" xmlns:xlink="http://www.w3.org/1999/xlink" viewBox="0 0 792.93 510.72"><defs><style>.cls-1{fill:none;}.cls-2{fill:#378fcb;}.cls-3{fill:#d83687;}.cls-4{fill:#0c80c1;}.cls-5{fill:#0d80c1;}.cls-6{fill:#3790cb;}.cls-7{fill:#0e80c2;}.cls-8{fill:#0e80c1;}.cls-9{fill:#0f80c2;}.cls-10{fill:#0f80c1;}.cls-11{fill:#1883c3;}.cls-12{fill:#0b7cbf;}.cls-13{fill:#0b7bbf;}.cls-14{fill:#2687c8;}.cls-15{fill:#0776bd;}.cls-16{fill:#137dc1;}.cls-17{fill:#0678be;}.cls-18{fill:#0a78bf;}.cls-19{fill:#0676bc;}.cls-20{fill:#0675bc;}.cls-21{fill:#0674bb;}.cls-22{fill:#0676bd;}.cls-23{fill:#0976bd;}.cls-24{fill:#0677bd;}.cls-25{fill:#0d7ac0;}.cls-26{fill:#067bc0;}.cls-27{fill:#f9fcfd;}.cls-28{fill:#1e7cbf;}.cls-29{fill:#0578bd;}.cls-30{fill:#177bbf;}.cls-31{fill:#0578be;}.cls-32{fill:#197ec0;}.cls-33{fill:#0779be;}.cls-34{fill:#077bc0;}.cls-35{fill:#0a78be;}.cls-36{fill:#0475bc;}.cls-37{clip-path:url(#clip-path);}.cls-38{clip-path:url(#clip-path-2);}.cls-39{clip-path:url(#clip-path-3);}</style><clipPath id="clip-path" transform="translate(39)"><rect class="cls-1" x="232.5" y="171.87" width="288.54" height="103.97"/></clipPath><clipPath id="clip-path-2" transform="translate(39)"><rect class="cls-1" y="349.91" width="324.86" height="95.01"/></clipPath><clipPath id="clip-path-3" transform="translate(39)"><rect class="cls-1" x="321.59" y="337.7" width="140.52" height="119.42"/></clipPath></defs><g id="Layer_2" data-name="Layer 2"><g id="Layer_1-2" data-name="Layer 1"><image width="1600" height="600" transform="translate(54.16) scale(0.17)" xlink:href="../../../../../Downloads/669152.jpg"/><image width="800" height="533" transform="translate(343.1) scale(0.19)" xlink:href="../../../../../Downloads/Bank_of_Ceylon.svg.png"/><image width="523" height="191" transform="translate(516.27) scale(0.5)" xlink:href="../../../../../Downloads/National_Savings_Bank_logo.png"/><path class="cls-2" d="M582.86,199.87q-2.11,10-4.22,20c-.82,3.89-2.71,5.63-6.75,5.61-5.2,0-10.39-.29-15.59-.46-1.2-1.21-1.16-2.66-.84-4.18-5-5.38-11.5-7.3-18.55-7.93-1.77-.16-3.57-.13-5.32-.44-3.71-.67-4.76-3.59-2.25-6.44,2.84-3.24,6.64-4.35,10.86-4.33,11,0,22,0,33,.08a17.59,17.59,0,0,0,5.94-.89,6.74,6.74,0,0,0,3.16-1.86C583.19,198.9,583,199.4,582.86,199.87Z" transform="translate(39)"/><path class="cls-3" d="M555.46,220.82l.84,4.18q1,7.69,2,15.39c.08.61.16,1.22.18,1.84a1.3,1.3,0,0,1-.9,1.24c-.54.24-.86-.18-1.16-.52-3.87-4.31-8.84-6.06-14.48-6.39a5.16,5.16,0,0,1-4.54-2.82c-3.49-6.82-6.94-13.65-10.64-21,4.61,2.26,9.29,1.24,13.69,2.31a25.57,25.57,0,0,1,11.73,5.81C553.53,222.14,554.41,221.92,555.46,220.82Z" transform="translate(39)"/><path class="cls-4" d="M598.13,225.51c-.73-.71-.36-1.61-.36-2.41q0-13.36,0-26.71c0-.88-.69-2.38.74-2.53s3.31-.73,4.63,1.11c4,5.61,8.19,11.1,12.31,16.63,1.19,1.61,2.41,3.2,3.65,4.84.75-.67.41-1.4.41-2,0-6.27.12-12.54,0-18.81,0-2.21,1.24-1.87,2.52-1.84s2.79-.56,2.76,1.86c-.12,9.45-.07,18.89,0,28.34,0,1.38-.36,2.07-1.82,1.85-1-.14-2,.35-2.89-.38,1.08-.48,2.18-.2,3.28-.24-1.1.15-2.21-.31-3.29.24-4.21-4.83-7.71-10.21-11.6-15.29a49.39,49.39,0,0,0-5.62-6.59V225a4.78,4.78,0,0,1-4.28,0c-.31-6.57-.06-13.15-.13-19.72,0-3,0-6,0-9.06,0-1.4.43-2,1.83-1.49-1.8-.25-1.83-.24-1.83,1.9q0,14,0,28.09A1,1,0,0,1,598.13,225.51Z" transform="translate(39)"/><path class="cls-4" d="M700.66,214.82c0-2.24.07-3.79,0-5.33-.24-4.19-2.35-6.76-6.24-7.55a13.69,13.69,0,0,0-5.77,0c-3.18.71-5.28,2.6-5.76,5.88a42.86,42.86,0,0,0,0,12.44c.5,3.29,2.64,5.16,5.82,5.81a13.7,13.7,0,0,0,6.67-.22,6.82,6.82,0,0,0,4.9-5.09C700.88,218.59,700.58,216.35,700.66,214.82Zm-5.3,4.79a3.45,3.45,0,0,1-3.76,3c-2,0-3.3-.86-3.61-2.85a36.72,36.72,0,0,1,0-11.51c.32-2,1.64-2.83,3.63-2.82a3.45,3.45,0,0,1,3.68,2.85c.49,1.9.21,3.84.31,5.76A34.22,34.22,0,0,1,695.36,219.61Z" transform="translate(39)"/><path class="cls-4" d="M647.49,207.78c-.59-3.41-2.82-5.28-6-5.88a16.84,16.84,0,0,0-6.92.22c-1,.23-2.1.16-1.69,1.77.33,1.24.44,2.46,2.27,2a12.06,12.06,0,0,1,4.14-.43c2.38.23,4.2,3.1,3.56,6.09-.51,2.36-2.26.26-3.4.62a4.68,4.68,0,0,1-1.6-.13c-6-.32-8.28,2-7.82,8,0,.61.16,1.23.27,1.84.53,2.91,2.07,4.28,5.06,4.45a28.47,28.47,0,0,0,8.08-.64c1.54-.37,3.22-.61,4.2-2.13C647.49,218.31,647.62,213,647.49,207.78Zm-4.69,13.61a1.24,1.24,0,0,1-1,.8,8.16,8.16,0,0,1-2,.35c-1.43-.11-3.36,1-4.16-.88-.88-2-1-4.21.86-6l2.55.05c.36.12.72.28,1.08.36A3.7,3.7,0,0,1,642.8,221.39Z" transform="translate(39)"/><path class="cls-5" d="M705.36,205.44c1.3-2.36,3.79-2.46,6-2.94a17.19,17.19,0,0,1,7.14-.45c2.74.54,4.34,1.86,4.44,4.59.22,6,.14,12.07.19,18.11,0,.89-.43,1.15-1.27,1.25-3.54.41-3.82.2-3.82-3.36,0-4.41,0-8.83,0-13.24-.05-3.58-.44-3.89-3.93-3.55-.69.07-1.38.18-2.06.31a2.09,2.09,0,0,0-1.88,2.44c.07,4.8,0,9.6,0,14.4q0,4.83-4.8,2.41c.53-2.43.24-4.89.22-7.33C705.53,213.87,705.87,209.65,705.36,205.44Z" transform="translate(39)"/><path class="cls-5" d="M692,246.2c-.46-.6-1.28-.91-.47-2.07,3.35-4.78,1-9.84-4.86-10.28-2.93-.23-5.89-.07-8.84-.12-.91,0-1.47.2-1.47,1.27,0,7,0,13.93,0,20.9,0,.6.18,1.14.88,1.11,3.62-.15,7.27.52,10.85-.43a26.62,26.62,0,0,0-4.18-.29,21.82,21.82,0,0,1,4.19.28C693.31,255.72,695.27,250.47,692,246.2Zm-11-9.57c1.92,0,3.87-.33,5.75.29a3.39,3.39,0,0,1-.12,6.5c-1.81.49-3.68.22-5.53.23-.68,0-.93-.41-.92-1v-2.54c0-.77,0-1.54,0-2.31C680.21,237.17,680.32,236.61,681,236.63Zm5.21,17.44a41.23,41.23,0,0,1-4.85.12c-.57,0-1.22-.08-1.15-.79.22-2.32-.7-4.73.53-7l.2,0c1.68.1,3.37.14,5,.31,2.43.27,3.51,1.47,3.57,3.69S688.27,253.79,686.25,254.07Z" transform="translate(39)"/><path class="cls-6" d="M553.45,199.86,552,190.24c2.74,1.86,5.57,2,8.46,2.14,4.88.15,9.76-.59,14.64,0a10.16,10.16,0,0,1,4.58,1.55c2.42,1.6,2.34,3.84-.19,5.28a7.05,7.05,0,0,1-3.74,1.11c-5.14-.46-10.29-.06-15.43-.22C558,200,555.73,200.34,553.45,199.86Z" transform="translate(39)"/><path class="cls-5" d="M737.39,201.71c1.59.2,2.9.35,4.2.54s2.38.45,2,2.31c-.35,1.61-1,1.93-2.54,1.56a22.26,22.26,0,0,0-4.63-.27,2.37,2.37,0,0,0-2.52,1.32,2.44,2.44,0,0,0,1,2.85c1.31,1.08,2.71,2.06,4.08,3.08a18.45,18.45,0,0,1,4.81,4.34,5.09,5.09,0,0,1-1.33,7.35c-4.33,2.74-9,2.06-13.48.63-1.58-.5-.2-1.88-.22-2.84s.81-.84,1.53-.64a17.56,17.56,0,0,0,6.68.67,2.66,2.66,0,0,0,2.46-1.47c.44-1.12-.26-1.95-.93-2.69a21,21,0,0,0-4.25-3.24,19.73,19.73,0,0,1-4-3.17c-3.17-3.5-2-8.17,2.58-9.54A33.24,33.24,0,0,1,737.39,201.71Z" transform="translate(39)"/><path class="cls-4" d="M655.89,206.44c-1.17-.85-2.52-.43-3.77-.43-1.69,0-1.25-1.13-1.31-2s0-1.84,1.36-1.76c1.22.07,2.44,0,3.66-.08.72-2,.31-4,.21-5.95,1.05-.76,2.24-.21,3.35-.34s1.42.4,1.35,1.37a7.21,7.21,0,0,0,0,.93c0,3.79,0,3.88,3.71,4.05,1.63.08,1.39,1,1.43,2s0,1.72-1.41,1.8c-3.74.2-3.74.28-3.73,4.09,0,3.17-.06,6.35,0,9.52.09,2.62.45,2.86,3.05,2.29.77-.17,1.36-.11,1.32.67,0,1,1.22,2.11-.21,2.9a7.49,7.49,0,0,1-2,.45,26.08,26.08,0,0,0-3.75,0c-2.16-.34-3-1.85-3.2-3.79A104.15,104.15,0,0,0,655.89,206.44Z" transform="translate(39)"/><path class="cls-7" d="M741.72,256.51l-5.76-6a14.94,14.94,0,0,0-.23,4.9c.08,1.65-.82,1.66-2,1.68s-1.8-.28-1.79-1.67q.09-10.44,0-20.88c0-1.37.49-1.73,1.77-1.68s2.09,0,2,1.64c-.11,3.38,0,6.77,0,10.5a15.51,15.51,0,0,0,3.87-3.84c1.4-1.75,3.07-1.23,5.34-1.15-2.18,2.38-4,4.45-5.9,6.39-.91.92-.94,1.52,0,2.46,2.22,2.37,4.34,4.83,6.5,7.25C744.3,257,743,256.36,741.72,256.51Z" transform="translate(39)"/><path class="cls-5" d="M669.93,212.47c0-2.86.11-5.72,0-8.57-.11-2.11,1.26-1.73,2.42-1.66s2.77-.75,2.72,1.61c-.09,5.1,0,10.19,0,15.29,0,2.9.21,3.09,3.15,2.68,1.12-.15,1.15.51,1.24,1.17.13.9,1,1.86-.42,2.61-4.57,2.47-9-.06-9.06-5.25C669.9,217.72,669.93,215.1,669.93,212.47Z" transform="translate(39)"/><path class="cls-5" d="M724,256.61c-.68-2.33-.18-4.71-.3-7.06-.08-1.54,0-3.08-.06-4.62s-.17-2.94-2.23-2.66c-1.65.23-3.64-.11-3.49,2.75.2,3.68,0,7.39,0,11.08a4.18,4.18,0,0,1-2.63.09c.68.54,1.77-.22,2.59.35-2.95,1.16-3.59.79-3.59-2.09,0-3.63.06-7.27,0-10.9a2.57,2.57,0,0,1,1.8-2.83,17.84,17.84,0,0,1,7.28-1.19c2.48.11,3.83,1.31,3.93,3.72a113.68,113.68,0,0,1,0,12.52c-.15,2.25-2,1.19-3.29.83a.79.79,0,0,1,.74-.25c-1-3.49-.1-7.06-.45-10C724,249.38,724.59,253,724,256.61Z" transform="translate(39)"/><path class="cls-8" d="M709.54,244a2.69,2.69,0,0,0-.63-1.93c-2.09-2.93-5.1-2.78-8.16-2.33-.85.13-2-.06-1.82,1.45.18,1.33,1,1.54,2.14,1.29a8.65,8.65,0,0,1,2.53-.22c1.65.15,2.87,2,2.6,4s-1.8.63-2.73.81a12.15,12.15,0,0,1-2.06-.16c-3,.07-4.35,1.41-4.47,4.42a13.47,13.47,0,0,0,.09,2.77c.26,1.51.86,2.82,2.7,3a34.19,34.19,0,0,1,5.16,0,6.1,6.1,0,0,0,4.57-1.47C709.64,251.74,709.48,247.88,709.54,244Zm-6.49,10.68c-1.95.34-2.5-.69-2.41-2.37.06-1.24-.07-2.56,1.78-2.6,2.72-.06,3.71.72,3.85,2.68C706.46,255.08,704.51,254.51,703.05,254.69Z" transform="translate(39)"/><path class="cls-8" d="M605.09,256.1q0-8.22-.1-16.45c0-3.46.3-3-3.17-3.05-.85,0-1.7,0-2.55,0s-1.48-.19-1.45-1.27.2-1.62,1.4-1.62c5.12,0,10.23,0,15.34,0,1.09,0,1.24.6,1.25,1.48s-.29,1.48-1.32,1.39c-.31,0-.62,0-.93,0-4.75,0-4.75,0-4.75,4.9v13c0,2.84-.68,3.22-3.66,2.06.81-.57,1.91.16,2.66-.37A4.3,4.3,0,0,1,605.09,256.1Z" transform="translate(39)"/><path class="cls-9" d="M631.7,257a2.56,2.56,0,0,1-2.3-2.52,63.1,63.1,0,0,1,0-14.21c.54,3.81.06,7.62.27,11.42-.2-3.81.29-7.62-.26-11.43,3-1,3.36-.74,3.36,2.26,0,2.79,0,5.57,0,8.36,0,3.93.87,4.56,4.64,3.42a8.33,8.33,0,0,0,1.25-.58,76.14,76.14,0,0,0,.14-13.42c2.9-1,3.53-.7,3.54,2,0,3.63-.09,7.25,0,10.87a2.83,2.83,0,0,1-2.29,3.21c-2.74.8-5.48,1.6-8.35.62a10.79,10.79,0,0,1,3.71-.22C634.18,256.91,632.93,256.54,631.7,257Z" transform="translate(39)"/><path class="cls-10" d="M649,257.07a4.49,4.49,0,0,1-2.26-.4c-.93-.38-.53-1.15-.46-1.8.08-.83.55-.92,1.31-.77a12.55,12.55,0,0,0,4.35.52c.85-.13,1.78-.25,2.11-1.18a1.92,1.92,0,0,0-.94-2.19c-1.35-1-2.77-2-4.14-3-1.81-1.35-3.31-2.93-2.66-5.44s2.69-3,4.83-3.28a12.63,12.63,0,0,1,4.38.21c.88.18,2,.06,1.63,1.59-.26,1.22-.89,1.4-2,1.21a17.45,17.45,0,0,0-3.23-.25,1.86,1.86,0,0,0-1.9,1.1,1.79,1.79,0,0,0,.83,2c1.68,1.35,3.46,2.6,5.14,4a4.6,4.6,0,0,1,2,3.51c0,2.27-1.39,3.66-4.35,4.18A36.08,36.08,0,0,0,649,257.07Z" transform="translate(39)"/><path class="cls-8" d="M660.17,240.32a.63.63,0,0,1,.74-.41c2.27.42,2.85-.73,2.55-2.72-.22-1.46.29-2,1.89-2s2,.73,1.81,2.09c-.23,1.8.06,3.09,2.38,2.66,1-.18,1.36.33,1.39,1.33,0,1.18-.53,1.56-1.56,1.4-2-.33-2.33.65-2.24,2.37.12,2.55,0,5.11,0,7.66,0,1.18.29,2.27,1.94,1.64.91-.35,1.19.1,1.39.94s.26,1.52-.8,1.76-2.37.81-3.58.06c.45-.42,1-.21,2-.32-1,.06-1.58-.08-2,.32-2.24-.29-2.55-2-2.62-3.73-.1-2.7-.14-5.41,0-8.11.1-1.9-.27-3-2.48-2.59a.71.71,0,0,1-.9-.5,4.25,4.25,0,0,1,2.26-.17C661.71,241.77,660.08,242.19,660.17,240.32Z" transform="translate(39)"/><path class="cls-8" d="M615.39,241.68c2.9-2.48,6.3-2.44,9.78-1.85,1.06.18,1,1,.83,1.81s-.73,1-1.53.93c-5.75-.3-5.75-.28-5.76,5.44,0,2.7-.05,5.39-.08,8.08-2.64.87-3.21.5-3.22-2.19,0-3.93,0-7.87,0-11.8C615.4,242,615.4,241.82,615.39,241.68Z" transform="translate(39)"/><path class="cls-11" d="M670,197.54c0-.61-.08-1.23-.09-1.84,0-3.15,1-3.95,4.12-3.17.5.13,1,.3.92.85-.09,1.56.48,3.17-.36,4.67C673.08,197.75,671.46,198.43,670,197.54Z" transform="translate(39)"/><path class="cls-12" d="M647.6,223.57a1.31,1.31,0,0,1-.51-1.21c0-4.52,0-9,0-13.55a3.31,3.31,0,0,1,.38-1A66.72,66.72,0,0,1,647.6,223.57Z" transform="translate(39)"/><path class="cls-13" d="M709.46,255.61c-.32-.06-.57-.17-.56-.56.06-3,.11-5.93.19-8.9,0-.73-.26-1.54.46-2.13A33.42,33.42,0,0,1,709.46,255.61Z" transform="translate(39)"/><path class="cls-14" d="M553.45,199.86q10.06,0,20.13,0c.74,0,1.56-.26,2.18.42l-21.45.13C553.92,200.41,553.55,200.33,553.45,199.86Z" transform="translate(39)"/><path class="cls-15" d="M705.36,205.44c.51.38.45.94.45,1.47v17c0,.53.05,1.09-.47,1.46Q705.36,215.42,705.36,205.44Z" transform="translate(39)"/><path class="cls-8" d="M618.59,256.55c-3,1.14-3.6.77-3.6-2.09,0-3.53,0-7.07,0-10.6,0-.73-.28-1.55.39-2.18l.07.07c.37,3.75.09,7.5.15,11.25C615.66,256.09,615.62,256.09,618.59,256.55Z" transform="translate(39)"/><path class="cls-16" d="M618.59,256.55c-3.19,0-3.2,0-3.19-3.25,0-3.85,0-7.7.06-11.55.35,0,.58.12.57.52,0,3.69,0,7.38-.21,11.06-.14,2.24.59,3.14,2.81,2.76Z" transform="translate(39)"/><path class="cls-17" d="M655.89,206.44c.43-.26.52,0,.52.35,0,4.85,0,9.7,0,14.55,0,.26-.25.53-.38.8C655.66,216.91,655.84,211.68,655.89,206.44Z" transform="translate(39)"/><path class="cls-18" d="M638.77,240.32a39.78,39.78,0,0,1-.14,13.42Q638.7,247,638.77,240.32Z" transform="translate(39)"/><path class="cls-19" d="M699.73,257.11a5.43,5.43,0,0,1,5.16,0A9.15,9.15,0,0,1,699.73,257.11Z" transform="translate(39)"/><path class="cls-20" d="M670,197.54c1.52.22,3.16-.58,4.59.51C673,198.18,671.37,199.17,670,197.54Z" transform="translate(39)"/><path class="cls-21" d="M598.13,225.51l.06-.54c.13-.24.27-.25.43,0l4.19,0C601.43,226.67,599.72,225.6,598.13,225.51Z" transform="translate(39)"/><path class="cls-17" d="M741.72,256.51c1.15-1,2.51-.13,3.74-.42.37.24.54.79.12.81C744.29,257,742.91,257.52,741.72,256.51Z" transform="translate(39)"/><path class="cls-22" d="M649,257.07a4.8,4.8,0,0,1,4.65,0A7,7,0,0,1,649,257.07Z" transform="translate(39)"/><path class="cls-15" d="M659.2,225.93a3.25,3.25,0,0,1,3.75,0A4.54,4.54,0,0,1,659.2,225.93Z" transform="translate(39)"/><path class="cls-17" d="M656,196.18c.46,2,.89,4-.21,5.95C655.93,200.15,655.6,198.15,656,196.18Z" transform="translate(39)"/><path class="cls-23" d="M660.17,240.32a2.91,2.91,0,0,0,2.71,1.82h-2.76A2.65,2.65,0,0,1,660.17,240.32Z" transform="translate(39)"/><path class="cls-17" d="M717.81,256.54a7,7,0,0,1-3.21-.44h3.25A.41.41,0,0,1,717.81,256.54Z" transform="translate(39)"/><path class="cls-24" d="M605.09,256.1h2.75l0,.44h-2.72Z" transform="translate(39)"/><path class="cls-25" d="M598.62,224.94l-.43,0,0-27.87c0-3,0-3,3.27-2.67-.83.71-2.21-.23-2.62.82a8.07,8.07,0,0,0-.19,2.75Z" transform="translate(39)"/><path class="cls-21" d="M620,225.43c1.16-1,2.45-.27,3.7,0H620Z" transform="translate(39)"/><path class="cls-26" d="M696.41,210.29v8.53h-.23V210.1Z" transform="translate(39)"/><path class="cls-27" d="M639,215.74l-2.55-.05A2.63,2.63,0,0,1,639,215.74Z" transform="translate(39)"/><path class="cls-28" d="M640.06,215.57l-1.07.17-2.55-.05C637.56,214.58,638.82,215.4,640.06,215.57Z" transform="translate(39)"/><path class="cls-29" d="M688.12,256.58h-10.6c3.54-.21,7.09-1.06,10.61,0Z" transform="translate(39)"/><path class="cls-30" d="M686.21,246.41H681l-.2,0a1.73,1.73,0,0,1,1.63-.56A9.1,9.1,0,0,1,686.21,246.41Z" transform="translate(39)"/><path class="cls-31" d="M734.69,256.46H732.8C733.44,255.83,734.05,256.16,734.69,256.46Z" transform="translate(39)"/><path class="cls-20" d="M674.19,225.49h2.19v.23H674.2Z" transform="translate(39)"/><path class="cls-32" d="M724,256.61V244.12h.51c0,3.31,0,6.62,0,9.92,0,1.34.1,2.39,1.84,2.41l-2.34.16Z" transform="translate(39)"/><path class="cls-33" d="M629.38,240.28c1,1.57.35,3.29.43,4.93a28.67,28.67,0,0,1-.44,7.09v-12Z" transform="translate(39)"/><path class="cls-19" d="M631.7,257c1.32-.88,2.75-.3,4.15,0H631.7Z" transform="translate(39)"/><path class="cls-34" d="M664.21,243.2v10.55H664V243.17Z" transform="translate(39)"/><path class="cls-35" d="M667.45,241.89a3.64,3.64,0,0,1,2.62,0A3.54,3.54,0,0,1,667.45,241.89Z" transform="translate(39)"/><path class="cls-36" d="M666.11,257.07c.59-.62,1.25-.68,2.21-.17l-2.19.17Z" transform="translate(39)"/><image width="600" height="360" transform="translate(47.1 158.38) scale(0.36)" xlink:href="../../../../../Downloads/Sampath-Bank-Logo-30.1.191.jpg"/><g class="cls-37"><image width="1150" height="650" transform="translate(196.5 99.92) scale(0.38)" xlink:href="../../../../../Downloads/HNB.jpg"/></g><g class="cls-38"><image width="800" height="450" transform="translate(0 284.11) scale(0.5)" xlink:href="../../../../../Downloads/29-DFCC.jpg"/></g><g class="cls-39"><image width="557" height="200" transform="translate(173.66 337.7) scale(0.59)" xlink:href="../../../../../Downloads/Lankapay-Logo.png"/></g><image width="900" height="500" transform="translate(527.62 323.72) scale(0.29)" xlink:href="../../../../../Downloads/commercial-bank-of-ceylon-plc-vector-logo.png"/></g></g></svg>