<svg xmlns="http://www.w3.org/2000/svg" viewBox="0 0 83.49 29.31"><defs><style>.cls-1{fill:#fff;}</style></defs><g id="Layer_2" data-name="Layer 2"><g id="Layer_1-2" data-name="Layer 1"><rect class="cls-1" y="1.2" width="5.3" height="9.43"/><polygon class="cls-1" points="19.11 1.21 19.11 13.05 5.3 13.05 5.3 13.05 0 13.05 0 29.31 5.3 29.31 5.3 17.95 19.11 17.95 19.11 29.31 24.37 29.31 24.37 1.21 19.11 1.21"/><path class="cls-1" d="M83.49,25.14a14.8,14.8,0,0,1-10.68,4.17c-10.44,0-14.86-7.19-14.9-14.49S62.65,0,72.81,0A14.52,14.52,0,0,1,83.13,4.3L79.6,7.71a9.66,9.66,0,0,0-6.79-2.65c-6.79,0-9.72,5.06-9.68,9.76s2.73,9.51,9.68,9.51a10.35,10.35,0,0,0,7.07-2.85Z"/><path class="cls-1" d="M48.91,14.7a5.75,5.75,0,0,0,3.67-5.45c0-5.69-4.15-8.19-9.72-8.19H29.46v9.5H34.7V5.91h8.16c3.39,0,4.44,2.17,4.44,3.47,0,1.61-1.09,3-4.44,3H29.46V29.31h13.4c5.85,0,10.57-2,10.57-8.31C53.43,19.22,52.22,15.71,48.91,14.7Zm-6,9.65H34.7V17.08h8.16c2.18,0,5.28,1.34,5.28,3.88S45,24.35,42.86,24.35Z"/></g></g></svg>