<svg data-v-423bf9ae="" xmlns="http://www.w3.org/2000/svg" viewBox="0 0 309.7037745498604 186" class="iconAboveSlogan"><!----><!----><!----><g data-v-423bf9ae="" id="3285d6e7-507b-492e-aca8-a7d5e70a4fce" fill="white" transform="matrix(4.803843162490988,0,0,4.803843162490988,-4.899920936614535,82.29543576770479)"><path d="M8.39 11.84C8.34 10.61 7.77 9.84 6.79 9.55C7.84 9.16 8.47 8.26 8.47 7.06C8.47 5.38 7.27 4.31 5.38 4.31L1.02 4.31L1.02 14L2.55 14L2.55 10.23L5.35 10.23C6.27 10.23 6.83 10.95 6.86 12.03C6.87 12.82 6.92 13.66 6.99 14L8.58 14C8.47 13.65 8.41 12.74 8.39 11.84ZM5.22 9.00L2.55 9.00L2.55 5.67L5.22 5.67C6.26 5.67 6.90 6.30 6.90 7.32C6.90 8.34 6.26 9.00 5.22 9.00ZM16.27 7.11L14.84 7.11L14.84 11.16C14.84 12.24 14.15 12.94 13.12 12.94C12.08 12.94 11.41 12.24 11.41 11.16L11.41 7.11L9.98 7.11L9.98 11.16C9.98 12.92 11.26 14.13 13.13 14.13C14.99 14.13 16.27 12.92 16.27 11.16ZM21.91 6.99C20.87 6.99 19.99 7.41 19.39 8.11L19.39 7.11L17.96 7.11L17.96 16.80L19.39 16.80L19.39 13.01C19.99 13.71 20.87 14.13 21.91 14.13C23.86 14.13 25.27 12.63 25.27 10.56C25.27 8.48 23.86 6.99 21.91 6.99ZM21.60 12.88C20.31 12.88 19.39 11.91 19.39 10.56C19.39 9.21 20.31 8.23 21.60 8.23C22.88 8.23 23.80 9.21 23.80 10.56C23.80 11.91 22.88 12.88 21.60 12.88ZM33.57 10.57C33.56 8.48 32.03 6.99 29.90 6.99C27.78 6.99 26.22 8.48 26.22 10.56C26.22 12.63 27.78 14.13 29.90 14.13C31.60 14.13 33.07 13.03 33.46 11.51L32.00 11.51C31.74 12.33 30.90 12.95 29.92 12.95C28.73 12.95 27.82 12.15 27.64 11.00L33.53 11.00C33.56 10.86 33.57 10.71 33.57 10.57ZM29.92 8.16C31.05 8.16 31.96 8.88 32.20 9.90L27.68 9.90C27.93 8.86 28.80 8.16 29.92 8.16ZM41.86 10.57C41.85 8.48 40.32 6.99 38.19 6.99C36.06 6.99 34.51 8.48 34.51 10.56C34.51 12.63 36.06 14.13 38.19 14.13C39.89 14.13 41.36 13.03 41.75 11.51L40.29 11.51C40.03 12.33 39.19 12.95 38.21 12.95C37.02 12.95 36.11 12.15 35.92 11.00L41.82 11.00C41.85 10.86 41.86 10.71 41.86 10.57ZM38.21 8.16C39.34 8.16 40.25 8.88 40.49 9.90L35.97 9.90C36.22 8.86 37.09 8.16 38.21 8.16ZM51.20 4.31L47.19 4.31L47.19 14L48.72 14L48.72 10.58L51.20 10.58C53.10 10.58 54.42 9.31 54.42 7.43C54.42 5.57 53.10 4.31 51.20 4.31ZM51.04 9.28L48.72 9.28L48.72 5.67L51.04 5.67C52.14 5.67 52.85 6.37 52.85 7.46C52.85 8.54 52.14 9.28 51.04 9.28ZM60.87 7.11L60.87 8.11C60.27 7.41 59.39 6.99 58.37 6.99C56.42 6.99 54.99 8.48 54.99 10.56C54.99 12.63 56.42 14.13 58.37 14.13C59.39 14.13 60.27 13.71 60.87 13.01L60.87 14L62.30 14L62.30 7.11ZM58.66 12.88C57.39 12.88 56.46 11.91 56.46 10.56C56.46 9.21 57.39 8.23 58.66 8.23C59.95 8.23 60.87 9.21 60.87 10.56C60.87 11.91 59.95 12.88 58.66 12.88ZM64.06 4.31L64.06 14L65.49 14L65.49 4.31Z"></path></g><!----><g data-v-423bf9ae="" id="b9807609-bb3e-472d-bfe3-09eeb0bbe9c2" transform="matrix(1.3940086066720616,0,0,1.3940086066720616,85.29956966639692,-23.981437696001635)" stroke="none" fill="white"><path d="M87.063 17.719c3.802 0 6.937 3.124 6.937 6.937v50.688c0 3.813-3.135 6.937-6.938 6.937H24.844c-3.808 0-6.938-3.13-6.938-6.937V64.219H8a2.05 2.05 0 0 1-1.406-.594A1.92 1.92 0 0 1 6.156 63 2.09 2.09 0 0 1 6 62.219V51.906a2.052 2.052 0 0 1 .594-1.406A2.048 2.048 0 0 1 8 49.906h9.906v-11.03c0-3.81 3.13-6.938 6.938-6.938h6.031v-12.22c0-.26.025-.507.125-.75.1-.241.252-.47.438-.655a2.049 2.049 0 0 1 1.437-.594h54.188zm0 4H34.874v10.219h52.188c1.048 0 2.042.232 2.937.656v-7.938a2.937 2.937 0 0 0-2.938-2.937zm-57.25 32.187H10v6.313h19.813v-6.313zm54.656 1.75c-.267 0-.535.053-.781.157-.247.103-.47.246-.657.437-.186.19-.34.408-.437.656a2.013 2.013 0 0 0-.156.782c.075 6.479.304 10.692-.25 12.187-.278.748-.401.886-1.25 1.156-.85.27-2.484.391-4.97.188a2.013 2.013 0 0 0-.78.094 2.123 2.123 0 0 0-.72.375c-.202.17-.346.359-.468.594a2.135 2.135 0 0 0-.219.78c-.021.264.012.53.094.782.082.251.203.487.375.688.172.2.389.35.625.468.236.118.486.201.75.219 2.705.222 4.76.189 6.531-.375a6.026 6.026 0 0 0 3.781-3.594c1.219-3.287.575-7.273.5-13.594.002-.261-.025-.539-.124-.78a1.92 1.92 0 0 0-.438-.626 2.05 2.05 0 0 0-1.406-.594z" style="text-indent:0;text-transform:none;block-progression:tb" overflow="visible" color="#000"></path></g><!----><g data-v-423bf9ae="" id="b337a6f9-14f9-46ff-9212-52e61995139b" fill="white" transform="matrix(1.0994880098081194,0,0,1.0994880098081194,38.74866309319357,200.1237531288931)"><path d="M6.97 6.75C7.63 6.45 8.22 5.85 8.22 4.66C8.22 3.54 7.48 2.21 5.29 2.21L1.13 2.21L1.13 11.48L5.53 11.48C7.64 11.48 8.69 10.43 8.69 9.04C8.69 7.66 7.76 7 6.97 6.75ZM2.18 3.21L5.40 3.21C6.68 3.21 7.17 3.98 7.17 4.75C7.17 5.88 6.26 6.36 5.29 6.36L2.18 6.36ZM5.64 10.49L2.18 10.49L2.18 7.31L5.53 7.31C7 7.31 7.64 8.09 7.64 8.96C7.64 9.93 6.92 10.49 5.64 10.49ZM20.83 7.81L24.71 2.21L23.44 2.21L20.30 6.72L17.16 2.21L15.89 2.21L19.78 7.81L19.78 11.48L20.83 11.48ZM49.27 2.21L49.27 6.33L43.88 6.33L43.88 2.21L42.83 2.21L42.83 11.48L43.88 11.48L43.88 7.35L49.27 7.35L49.27 11.48L50.32 11.48L50.32 2.21ZM63.74 2.21L62.43 2.21L58.49 11.48L59.65 11.48L60.79 8.79L65.38 8.79L66.51 11.48L67.68 11.48ZM61.19 7.83L63.08 3.30L64.97 7.83ZM76.47 4.65C76.47 4.03 76.83 3.08 78.93 3.08C80.63 3.08 81.41 3.82 81.52 4.75L82.60 4.75C82.52 3.36 81.40 2.10 78.93 2.10C76.61 2.10 75.45 3.15 75.45 4.66C75.45 7.84 81.79 6.69 81.79 8.96C81.79 10.05 80.81 10.60 79.24 10.60C77.63 10.60 76.33 10.05 76.26 8.71L75.17 8.71C75.31 10.37 76.43 11.59 79.17 11.59C81.45 11.59 82.84 10.64 82.84 8.92C82.84 5.68 76.47 6.80 76.47 4.65ZM95.62 2.21L94.30 2.21L90.37 11.48L91.53 11.48L92.67 8.79L97.26 8.79L98.39 11.48L99.55 11.48ZM93.07 7.83L94.96 3.30L96.85 7.83ZM113.48 2.21L105.97 2.21L105.97 3.22L109.20 3.22L109.20 11.48L110.25 11.48L110.25 3.22L113.48 3.22ZM128.25 2.21L128.25 6.33L122.86 6.33L122.86 2.21L121.81 2.21L121.81 11.48L122.86 11.48L122.86 7.35L128.25 7.35L128.25 11.48L129.30 11.48L129.30 2.21ZM142.55 10.57C140.29 10.57 139.03 8.93 139.03 6.85C139.03 4.76 140.29 3.12 142.55 3.12C144.07 3.12 145.08 3.85 145.56 4.98L146.66 4.98C146.08 3.29 144.56 2.10 142.46 2.10C139.68 2.10 137.98 4.21 137.98 6.85C137.98 9.48 139.68 11.59 142.46 11.59C144.56 11.59 146.08 10.40 146.66 8.71L145.56 8.71C145.08 9.84 144.07 10.57 142.55 10.57ZM161.67 2.21L161.67 6.33L156.28 6.33L156.28 2.21L155.23 2.21L155.23 11.48L156.28 11.48L156.28 7.35L161.67 7.35L161.67 11.48L162.72 11.48L162.72 2.21ZM176.15 2.21L174.83 2.21L170.90 11.48L172.06 11.48L173.19 8.79L177.79 8.79L178.92 11.48L180.08 11.48ZM173.60 7.83L175.49 3.30L177.38 7.83ZM189.31 7.92L192.53 7.92L194.77 11.48L196.01 11.48L193.58 7.74C194.61 7.50 195.82 6.90 195.82 5.11C195.82 3.35 194.60 2.21 192.70 2.21L188.26 2.21L188.26 11.48L189.31 11.48ZM189.31 3.21L192.57 3.21C193.89 3.21 194.77 3.93 194.77 5.11C194.77 6.55 193.51 6.93 192.51 6.93L189.31 6.93ZM211.34 2.21L211.34 7.52C211.34 9.67 209.92 10.57 208.45 10.57C206.98 10.57 205.56 9.67 205.56 7.52L205.56 2.21L204.51 2.21L204.51 7.49C204.51 9.95 206.14 11.59 208.45 11.59C210.77 11.59 212.39 9.94 212.39 7.49L212.39 2.21Z"></path></g></svg>