<svg xmlns="http://www.w3.org/2000/svg" viewBox="0 0 406.49 323.92"><defs><style>.cls-1{fill:#f5f5f5;}.cls-2,.cls-6{fill:#22cc9d;}.cls-10,.cls-11,.cls-14,.cls-15,.cls-3,.cls-8{fill:#fff;}.cls-10,.cls-11,.cls-3,.cls-4,.cls-5,.cls-6,.cls-7,.cls-8{isolation:isolate;}.cls-3{opacity:0.4;}.cls-10,.cls-4,.cls-7{opacity:0.2;}.cls-11,.cls-5{opacity:0.1;}.cls-15,.cls-8{opacity:0.6;}.cls-17,.cls-9{fill:none;}.cls-9{stroke:#22cc9d;stroke-miterlimit:10;}.cls-12{fill:#263238;}.cls-13{fill:#e4897b;}.cls-16{fill:#de5753;}.cls-17{stroke:#263238;stroke-linecap:round;stroke-linejoin:round;stroke-width:0.56px;}</style></defs><g id="Layer_2" data-name="Layer 2"><g id="Shadow"><ellipse id="_Path_" data-name="&lt;Path&gt;" class="cls-1" cx="207.2" cy="312.59" rx="193.89" ry="11.32"/></g><g id="Tree"><path class="cls-2" d="M329.45,296.38s-3.25-.17-3.57-9.06,5.4-11.25,9.8-10.17c0,0-.64-6.32,2.21-6.09s2.66,4.46,2.66,4.46,1-9,4.87-9,0,10.61,0,10.61,5.39-2.58,7.37,0-2.48,5.63-2.48,5.63,7,2.27,4.07,9.52c0,0,4.87.76,6.23,4,0,0-.39-6.54,1.36-6.1s1.37,6.18,1.37,6.18,2.92-6.31,5.45-4.08-1.17,7.57-1.17,7.57,4.87-2.37,5.65.77-2.73,4.3-2.73,4.3,5.07-1.17,5.07,4.64c0,0,9.74-.93,12.07,4.29h-58Z"/><path class="cls-3" d="M329.45,296.38s-3.25-.17-3.57-9.06,5.4-11.25,9.8-10.17c0,0-.64-6.32,2.21-6.09s2.66,4.46,2.66,4.46,1-9,4.87-9,0,10.61,0,10.61,5.39-2.58,7.37,0-2.48,5.63-2.48,5.63,7,2.27,4.07,9.52c0,0,4.87.76,6.23,4,0,0-.39-6.54,1.36-6.1s1.37,6.18,1.37,6.18,2.92-6.31,5.45-4.08-1.17,7.57-1.17,7.57,4.87-2.37,5.65.77-2.73,4.3-2.73,4.3,5.07-1.17,5.07,4.64c0,0,9.74-.93,12.07,4.29h-58Z"/><path class="cls-2" d="M299.8,205.38c-1.4,23-9,108-9,108l54.91.51-15.48-153.6,24.64-7.51,5.18-14.93,20.8-11.78,10.18-15.61-3.93-1L375.9,123.91l-13.1,2.84,5.61-13.28h-6.24l-15.6,30.78-16,3.28-1.46-56c-16.07,7.52-21.22-5-21.22-5s-4.16,87.65-6.49,94.27h0a33.25,33.25,0,0,1-6.57-4.75,76.52,76.52,0,0,1-14-16.56l-1.05-1.64h-5Z"/><g class="cls-4"><path d="M299.8,205.38c-1.4,23-9,108-9,108l54.91.51-15.48-153.6,24.64-7.51,5.18-14.93,20.8-11.78,10.18-15.61-3.93-1L375.9,123.91l-13.1,2.84,5.61-13.28h-6.24l-15.6,30.78-16,3.28-1.46-56c-16.07,7.52-21.22-5-21.22-5s-4.16,87.65-6.49,94.27h0a33.25,33.25,0,0,1-6.57-4.75,76.52,76.52,0,0,1-14-16.56l-1.05-1.64h-5Z"/></g><path class="cls-5" d="M357.69,133.68l-6.7,12.9-20.92,5.29s.06-3.29.41-7.51l.08,3.17,16-3.28,15.6-30.78h6.24l-5.61,13.28,13.1-2.84,11.24-14.42.54.13L379,122.71Z"/><polygon class="cls-6" points="327.55 237.91 332.5 313.74 323.79 313.66 323.79 253.81 327.55 237.91"/><path class="cls-6" d="M299.8,205.38l-25-47.51h5l1.05,1.64a76.52,76.52,0,0,0,14,16.56,33.25,33.25,0,0,0,6.57,4.75c2.33-6.62,6.49-94.27,6.49-94.27a13,13,0,0,0,8.44,7l.72,85c1.77-4.05,3.31-7.89,3.46-12.09.53,11.6,1.23,24.08,1.19,35.53l-9.62,35.48-1.92,76.12-19.31-.18S298.4,228.33,299.8,205.38Z"/><path class="cls-2" d="M238,57c-8,2.85-13.52,11.33-13.27,19.83A22.79,22.79,0,0,0,238.6,96.61a25.15,25.15,0,0,0,24.18-3.18c.35,8.16,5.94,17,13.73,19.52a20.59,20.59,0,0,0,22-6.89c21,13.19,94.49,18.08,107.41-38.08,2.67-11.6-3.79-23.89-13.26-31.1s-21.51-10.16-33.33-11.61c-11.2-17.84-36.06-27.6-57-24.79s-39.46,18.61-45.57,38.78C235.48,39.31,237.69,58.44,238,57Z"/><g class="cls-4"><path d="M238,57c-8,2.85-13.52,11.33-13.27,19.83A22.79,22.79,0,0,0,238.6,96.61a25.15,25.15,0,0,0,24.18-3.18c.35,8.16,5.94,17,13.73,19.52a20.59,20.59,0,0,0,22-6.89c21,13.19,94.49,18.08,107.41-38.08,2.67-11.6-3.79-23.89-13.26-31.1s-21.51-10.16-33.33-11.61c-11.2-17.84-36.06-27.6-57-24.79s-39.46,18.61-45.57,38.78C235.48,39.31,237.69,58.44,238,57Z"/></g><path class="cls-2" d="M263.94,167.51a11.24,11.24,0,0,0,20.1-3.16c5,3.5,12.67,2.63,17.7-.78a15.1,15.1,0,0,0-6.5-27.48,18,18,0,0,0-8.47-13.73A19.63,19.63,0,0,0,270,120.58a20.56,20.56,0,0,0-17.85,5.73c-3.37,3.27-5.62,7.92-5.22,12.6s3.8,9.17,8.42,10.06a13.77,13.77,0,0,0-.49,10.94C256.33,163.43,260.36,166.17,263.94,167.51Z"/><path class="cls-7" d="M263.94,167.51a11.24,11.24,0,0,0,20.1-3.16c5,3.5,12.67,2.63,17.7-.78a15.1,15.1,0,0,0-6.5-27.48,18,18,0,0,0-8.47-13.73A19.63,19.63,0,0,0,270,120.58a20.56,20.56,0,0,0-17.85,5.73c-3.37,3.27-5.62,7.92-5.22,12.6s3.8,9.17,8.42,10.06a13.77,13.77,0,0,0-.49,10.94C256.33,163.43,260.36,166.17,263.94,167.51Z"/><path class="cls-2" d="M369.76,82.59a11.25,11.25,0,0,0-14.19,14.6c-6.08.19-11.7,5.49-13.68,11.24a15.1,15.1,0,0,0,21.7,18.08,18,18,0,0,0,15,5.89,19.58,19.58,0,0,0,14.48-8.66,20.54,20.54,0,0,0,10.84-15.3c.73-4.64-.26-9.7-3.38-13.21s-8.55-5-12.77-3a13.84,13.84,0,0,0-6.19-9C378.28,81.28,373.42,81.5,369.76,82.59Z"/><path class="cls-5" d="M369.76,82.59a11.25,11.25,0,0,0-14.19,14.6c-6.08.19-11.7,5.49-13.68,11.24a15.1,15.1,0,0,0,21.7,18.08,18,18,0,0,0,15,5.89,19.58,19.58,0,0,0,14.48-8.66,20.54,20.54,0,0,0,10.84-15.3c.73-4.64-.26-9.7-3.38-13.21s-8.55-5-12.77-3a13.84,13.84,0,0,0-6.19-9C378.28,81.28,373.42,81.5,369.76,82.59Z"/><path class="cls-2" d="M332.64,311.64s-20.16-13.06-16.34-15.27,17.28,10.85,17.28,10.85-14.86-21.75-11.19-26.11S336,298.83,336,298.83s-6.72-25.24-2-28,6.47,25.3,6.47,25.3,1.86-30.4,10.55-30-4,30-4,30,12.26-17.59,16.61-12.6-13.84,19-13.84,19,13.6-6.4,14.51-1.65-15,9.79-15,9.79,5.12,1.47,6.3,3.18H328.37S327.94,312.56,332.64,311.64Z"/><path class="cls-8" d="M332.64,311.64s-20.16-13.06-16.34-15.27,17.28,10.85,17.28,10.85-14.86-21.75-11.19-26.11S336,298.83,336,298.83s-6.72-25.24-2-28,6.47,25.3,6.47,25.3,1.86-30.4,10.55-30-4,30-4,30,12.26-17.59,16.61-12.6-13.84,19-13.84,19,13.6-6.4,14.51-1.65-15,9.79-15,9.79,5.12,1.47,6.3,3.18H328.37S327.94,312.56,332.64,311.64Z"/></g><g id="Stone"><path class="cls-9" d="M45.86,222.51s6-6.86,12.86-2,13.63,40.41,13.63,40.41"/><path class="cls-9" d="M69.86,263.83s-2.43-24.46-10.43-32.07-13,5.86-13,5.86"/><path class="cls-2" d="M64.69,224.72s4.52-.9,5.4,3S62.57,244,62.57,244s-7.63-1.47-7.62-11.49S63.18,222.49,64.69,224.72Z"/><path class="cls-10" d="M64.69,224.72s4.52-.9,5.4,3S62.57,244,62.57,244s-7.63-1.47-7.62-11.49S63.18,222.49,64.69,224.72Z"/><path class="cls-2" d="M53,232.29s1.83-2-.56-2.49S39,231.31,40.65,242.3c0,0,13.24.11,14.18-4.32S53,232.29,53,232.29Z"/><path class="cls-10" d="M53,232.29s1.83-2-.56-2.49S39,231.31,40.65,242.3c0,0,13.24.11,14.18-4.32S53,232.29,53,232.29Z"/><path class="cls-2" d="M70,213.44s-.51-2,1.28-1.48,8.54,5.86,3.49,12.72c0,0-9-4.7-8-8S70,213.44,70,213.44Z"/><path class="cls-10" d="M70,213.44s-.51-2,1.28-1.48,8.54,5.86,3.49,12.72c0,0-9-4.7-8-8S70,213.44,70,213.44Z"/><path class="cls-9" d="M235.89,268s11.36-41.14,32.28-52.24"/><path class="cls-9" d="M236.11,263.33s20.3-44,13.25-58.21"/><path class="cls-9" d="M235.31,266.54s16.5-55.12,26.69-61.62"/><path class="cls-2" d="M252.52,207.05s3,.79,3.42-1-8.74-10.51-18-5.72c0,0,1.4,8.66,7.32,11S252.52,207.05,252.52,207.05Z"/><path class="cls-10" d="M252.52,207.05s3,.79,3.42-1-8.74-10.51-18-5.72c0,0,1.4,8.66,7.32,11S252.52,207.05,252.52,207.05Z"/><path class="cls-2" d="M259.48,204.86s-3.07.26-3.18-1.62,10.44-8.82,18.69-2.49c0,0-2.9,8.28-9.14,9.59S259.48,204.86,259.48,204.86Z"/><path class="cls-10" d="M259.48,204.86s-3.07.26-3.18-1.62,10.44-8.82,18.69-2.49c0,0-2.9,8.28-9.14,9.59S259.48,204.86,259.48,204.86Z"/><path class="cls-2" d="M269.26,213.18s-1.36-2.36,1.07-2.32,12.82,4.28,8.95,14.7c0,0-13-2.66-13-7.19S269.26,213.18,269.26,213.18Z"/><path class="cls-10" d="M269.26,213.18s-1.36-2.36,1.07-2.32,12.82,4.28,8.95,14.7c0,0-13-2.66-13-7.19S269.26,213.18,269.26,213.18Z"/><path class="cls-2" d="M259.61,219.06s.57-2,1.84-.65,4.48,9.35-3.33,12.77c0,0-5.45-8.57-3-11S259.61,219.06,259.61,219.06Z"/><path class="cls-10" d="M259.61,219.06s.57-2,1.84-.65,4.48,9.35-3.33,12.77c0,0-5.45-8.57-3-11S259.61,219.06,259.61,219.06Z"/><path class="cls-2" d="M49.12,219.73s1-1.83-.87-1.75-9.72,3.58-6.52,11.47c0,0,9.88-2.33,9.77-5.8S49.12,219.73,49.12,219.73Z"/><path class="cls-10" d="M49.12,219.73s1-1.83-.87-1.75-9.72,3.58-6.52,11.47c0,0,9.88-2.33,9.77-5.8S49.12,219.73,49.12,219.73Z"/><path class="cls-2" d="M224.88,287.88s-6.6-.25-7.26-13.56,11-16.87,19.91-15.24c0,0-1.3-9.47,4.49-9.13s5.4,6.68,5.4,6.68,2-13.44,9.89-13.44,0,15.89,0,15.89,10.95-3.87,15,0-5,8.43-5,8.43,14.2,3.41,8.26,14.27c0,0,9.89,1.13,12.66,6,0,0-.79-9.8,2.77-9.14s2.77,9.25,2.77,9.25,5.93-9.44,11.08-6.1-2.38,11.34-2.38,11.34,9.89-3.55,11.48,1.15-5.54,6.44-5.54,6.44,10.28-1.75,10.28,7c0,0,19.78-1.39,24.53,6.43H225.27Z"/><path class="cls-3" d="M224.88,287.88s-6.6-.25-7.26-13.56,11-16.87,19.91-15.24c0,0-1.3-9.47,4.49-9.13s5.4,6.68,5.4,6.68,2-13.44,9.89-13.44,0,15.89,0,15.89,10.95-3.87,15,0-5,8.43-5,8.43,14.2,3.41,8.26,14.27c0,0,9.89,1.13,12.66,6,0,0-.79-9.8,2.77-9.14s2.77,9.25,2.77,9.25,5.93-9.44,11.08-6.1-2.38,11.34-2.38,11.34,9.89-3.55,11.48,1.15-5.54,6.44-5.54,6.44,10.28-1.75,10.28,7c0,0,19.78-1.39,24.53,6.43H225.27Z"/><path class="cls-2" d="M87.26,287.88s4.86-.25,5.35-13.56-8.09-16.87-14.69-15.24c0,0,1-9.47-3.31-9.13s-4,6.68-4,6.68-1.46-13.44-7.29-13.44,0,15.89,0,15.89-8.08-3.87-11,0,3.7,8.43,3.7,8.43-10.47,3.41-6.09,14.27c0,0-7.29,1.13-9.34,6,0,0,.59-9.8-2-9.14s-2,9.25-2,9.25-4.38-9.44-8.17-6.1,1.75,11.34,1.75,11.34-7.3-3.55-8.46,1.15,4.08,6.44,4.08,6.44-7.59-1.75-7.59,7c0,0-14.59-1.39-18.09,6.43H87Z"/><path class="cls-3" d="M87.26,287.88s4.86-.25,5.35-13.56-8.09-16.87-14.69-15.24c0,0,1-9.47-3.31-9.13s-4,6.68-4,6.68-1.46-13.44-7.29-13.44,0,15.89,0,15.89-8.08-3.87-11,0,3.7,8.43,3.7,8.43-10.47,3.41-6.09,14.27c0,0-7.29,1.13-9.34,6,0,0,.59-9.8-2-9.14s-2,9.25-2,9.25-4.38-9.44-8.17-6.1,1.75,11.34,1.75,11.34-7.3-3.55-8.46,1.15,4.08,6.44,4.08,6.44-7.59-1.75-7.59,7c0,0-14.59-1.39-18.09,6.43H87Z"/><path class="cls-2" d="M43.83,311.87S64,298.8,60.17,296.59,42.9,307.44,42.9,307.44s14.86-21.74,11.18-26.1-13.56,17.72-13.56,17.72,6.73-25.24,2-28S36,296.34,36,296.34s-1.85-30.4-10.55-30,4,30,4,30-12.27-17.59-16.62-12.6,13.85,19,13.85,19-13.61-6.4-14.52-1.65,15,9.79,15,9.79-5.12,1.47-6.3,3.19H48.1S48.53,312.78,43.83,311.87Z"/><path class="cls-8" d="M43.83,311.87S64,298.8,60.17,296.59,42.9,307.44,42.9,307.44s14.86-21.74,11.18-26.1-13.56,17.72-13.56,17.72,6.73-25.24,2-28S36,296.34,36,296.34s-1.85-30.4-10.55-30,4,30,4,30-12.27-17.59-16.62-12.6,13.85,19,13.85,19-13.61-6.4-14.52-1.65,15,9.79,15,9.79-5.12,1.47-6.3,3.19H48.1S48.53,312.78,43.83,311.87Z"/><path class="cls-2" d="M53.92,314.09s23.21-85.37,27.43-88.54,28.29-12.06,28.29-12.06,58.55,9.77,67.35,8.81,37.08-6.42,41.14,0,20.07,44.92,20.07,44.92l22.49,9.5,14.24,37.37Z"/><path class="cls-8" d="M274.94,314.09h-221s23.09-85,27.39-88.52l0,0A31.57,31.57,0,0,1,86.08,223c8.36-3.89,23.56-9.51,23.56-9.51s58.55,9.78,67.35,8.81,37.08-6.42,41.14,0c.86,1.37,2.27,4.19,4,7.79,6.2,13.29,16.12,37.13,16.12,37.13l22.49,9.5Z"/><path class="cls-5" d="M222.08,230.09l-8.73,8.64-22.75-5.35-25.74,5.35,1.65,10-9.37,11.16,3.33-11.16-7.3-12.27s-29.62,1.8-37.35,0C111,235.28,96.3,228.14,86.08,223c8.36-3.89,23.56-9.51,23.56-9.51s58.55,9.78,67.35,8.81,37.08-6.42,41.14,0C219,223.67,220.4,226.49,222.08,230.09Z"/><path class="cls-5" d="M274.94,314.09h-221s23.09-85,27.39-88.52l0,0L67.11,291.79l7.12,11,17.5-13.28L105.15,297l18.62-3.76,1.85-9L152,266.85l-16.56,15.34,5.83,17.5,25.35,4.37h28l11.58-7.72-3.86-15.7-5.83-9.1,29.55-.07-12.58,7.79,4.64,13.83,14.23,6.6,16.54-10.21L255.64,309Z"/><path class="cls-2" d="M245.39,314.09H282s-7.3-11.16-10.41-9.75c-4,1.85-7-8.27-11.52-5.87-1.58.84-.81,3.55-1.8,4.64-1.65,1.8-3.73,1.45-5.72,2.44C248.69,307.48,247.31,310.05,245.39,314.09Z"/><path class="cls-7" d="M245.39,314.09H282s-7.3-11.16-10.41-9.75c-4,1.85-7-8.27-11.52-5.87-1.58.84-.81,3.55-1.8,4.64-1.65,1.8-3.73,1.45-5.72,2.44C248.69,307.48,247.31,310.05,245.39,314.09Z"/><path class="cls-2" d="M278,311s-2.4-14-.74-16,2,7.61,2,7.61,5.58-20.16,9.15-20.27-4.24,17.49-4.24,17.49,15.26-24.94,19.7-22.62-16,24.43-16,24.43,11.17-9.6,13.63-6.89-12.4,11-12.4,11,6.55-1.47,6.55.71S284.58,312.21,278,311Z"/><path class="cls-10" d="M278,311s-2.4-14-.74-16,2,7.61,2,7.61,5.58-20.16,9.15-20.27-4.24,17.49-4.24,17.49,15.26-24.94,19.7-22.62-16,24.43-16,24.43,11.17-9.6,13.63-6.89-12.4,11-12.4,11,6.55-1.47,6.55.71S284.58,312.21,278,311Z"/><path class="cls-2" d="M275.82,309s-11.47-2.08-12.58-3.94,6.44.64,6.44.64-14-10-13.09-12.8,12.33,8.22,12.33,8.22-15-18.85-11.93-21.62,14.38,19.25,14.38,19.25-4.27-11.34-1.48-12.48,5,12.69,5,12.69.71-5.48,2.4-4.86S278.63,304.26,275.82,309Z"/><path class="cls-10" d="M275.82,309s-11.47-2.08-12.58-3.94,6.44.64,6.44.64-14-10-13.09-12.8,12.33,8.22,12.33,8.22-15-18.85-11.93-21.62,14.38,19.25,14.38,19.25-4.27-11.34-1.48-12.48,5,12.69,5,12.69.71-5.48,2.4-4.86S278.63,304.26,275.82,309Z"/><path class="cls-2" d="M275,307.46s-11.07-11.1-10.88-14,6.63,5.65,6.63,5.65-7.81-21.81-4.65-24.19,7.32,18.54,7.32,18.54-2.09-32.31,3.4-33,1.13,32.31,1.13,32.31,4-15.82,7.93-14.93-4.2,17.87-4.2,17.87,5-5.51,6.38-3.54S281.69,304.4,275,307.46Z"/><path class="cls-11" d="M275,307.46s-11.07-11.1-10.88-14,6.63,5.65,6.63,5.65-7.81-21.81-4.65-24.19,7.32,18.54,7.32,18.54-2.09-32.31,3.4-33,1.13,32.31,1.13,32.31,4-15.82,7.93-14.93-4.2,17.87-4.2,17.87,5-5.51,6.38-3.54S281.69,304.4,275,307.46Z"/><path class="cls-2" d="M261.53,314.09h29.2s-5.82-8.9-8.29-7.77c-3.23,1.47-5.62-6.59-9.19-4.68-1.26.67-.64,2.83-1.43,3.7-1.31,1.43-3,1.15-4.56,1.94C264.17,308.82,263.06,310.87,261.53,314.09Z"/><path class="cls-2" d="M79.23,314.09H42.6s7.3-11.16,10.4-9.75c4,1.85,7-8.27,11.53-5.87,1.58.84.81,3.55,1.8,4.64,1.64,1.8,3.73,1.45,5.72,2.44C75.93,307.48,77.32,310.05,79.23,314.09Z"/><path class="cls-7" d="M79.23,314.09H42.6s7.3-11.16,10.4-9.75c4,1.85,7-8.27,11.53-5.87,1.58.84.81,3.55,1.8,4.64,1.64,1.8,3.73,1.45,5.72,2.44C75.93,307.48,77.32,310.05,79.23,314.09Z"/><path class="cls-2" d="M46.6,311s2.41-14,.75-16-2,7.61-2,7.61-5.58-20.16-9.15-20.27,4.24,17.49,4.24,17.49-15.27-24.94-19.7-22.62,16,24.43,16,24.43S25.6,292,23.14,294.73s12.39,11,12.39,11-6.55-1.47-6.54.71S40.05,312.21,46.6,311Z"/><path class="cls-10" d="M46.6,311s2.41-14,.75-16-2,7.61-2,7.61-5.58-20.16-9.15-20.27,4.24,17.49,4.24,17.49-15.27-24.94-19.7-22.62,16,24.43,16,24.43S25.6,292,23.14,294.73s12.39,11,12.39,11-6.55-1.47-6.54.71S40.05,312.21,46.6,311Z"/><path class="cls-2" d="M57.85,311.63s8.73-7.72,8.72-9.89-5.18,3.88-5.18,3.88,6.8-15.82,4.56-17.73-6.28,13.42-6.28,13.42,3-23.88-1-24.67-2.32,23.92-2.32,23.92-2.22-11.92-5.2-11.45,2.3,13.46,2.3,13.46-3.45-4.32-4.57-2.92S53,309.05,57.85,311.63Z"/><path class="cls-10" d="M57.85,311.63s8.73-7.72,8.72-9.89-5.18,3.88-5.18,3.88,6.8-15.82,4.56-17.73-6.28,13.42-6.28,13.42,3-23.88-1-24.67-2.32,23.92-2.32,23.92-2.22-11.92-5.2-11.45,2.3,13.46,2.3,13.46-3.45-4.32-4.57-2.92S53,309.05,57.85,311.63Z"/><path class="cls-2" d="M63.09,314.09H33.9s5.81-8.9,8.29-7.77c3.23,1.47,5.62-6.59,9.19-4.68,1.25.67.64,2.83,1.43,3.7,1.31,1.43,3,1.15,4.55,1.94C60.46,308.82,61.56,310.87,63.09,314.09Z"/></g><g id="Character"><g id="_Group_" data-name="&lt;Group&gt;"><path class="cls-12" d="M132.06,122.4s-33.61-5.25-40-2.5-8.53,12.65-8.53,12.65-1.14,2,2.33,2.25c0,0-14.23,35.45-9.73,42.25s49.82,9.5,56,6.18S153,124.89,132.06,122.4Z"/><path class="cls-13" d="M151.86,156.18s4.45,10.33,5.46,11.76,23.15,11.63,23.15,11.63a19.55,19.55,0,0,1,5.41,0c2.72.43,6.49,1.58,6.83,2s-4.12,6.89-4.12,6.89-8.85.55-9.94-3c0,0-22.19-8.24-24.78-10.39s-9.76-14.93-9.76-14.93Z"/><path class="cls-2" d="M145.5,133.56c4.16,2.48,10.67,29.18,12.07,32.34S176,176.78,176,176.78L168.42,184s-17.19-7.61-19.36-9.79-10.74-24.33-10.74-24.33Z"/><path class="cls-12" d="M144.11,194.57s70.12-10.07,73.82,5.32c3.92,16.27-52.39,27.24-86,28.39S88.56,222,94,180.45l45.39-.11Z"/><path class="cls-7" d="M144.11,194.57s70.12-10.07,73.82,5.32c3.92,16.27-52.39,27.24-86,28.39S88.56,222,94,180.45l45.39-.11Z"/><path class="cls-2" d="M207.44,218.42a.23.23,0,0,1-.25,0,.17.17,0,0,1-.05-.21c.1-.38,1.22-3.61,2.35-3.95a.68.68,0,0,1,.67.2,1.14,1.14,0,0,1,.4,1.08,2.92,2.92,0,0,1-1.06,1.52A12.29,12.29,0,0,1,207.44,218.42Zm.29-.62a4.82,4.82,0,0,0,2.4-2.31.74.74,0,0,0-.29-.74.24.24,0,0,0-.26-.08.61.61,0,0,0-.26.15A9.42,9.42,0,0,0,207.73,217.8Z"/><path class="cls-2" d="M207.38,218.46a.19.19,0,0,1-.21-.06c-.1-.09-1.66-2.05-1.4-3.37a1.22,1.22,0,0,1,.54-.82.72.72,0,0,1,.89-.08c.81.57.72,3.2.32,4.19l0,.1A.21.21,0,0,1,207.38,218.46Zm-.88-3.84a.81.81,0,0,0-.27.47c-.16.84.62,2.09,1,2.69.25-1.12.17-3-.3-3.29-.06,0-.15-.1-.39.07l-.08.06Z"/><polygon class="cls-13" points="183.16 226.66 197.85 226.67 204.91 226.67 205.75 219.25 199.22 218.37 183.28 216.24 183.16 226.66"/><path class="cls-12" d="M204.16,218.31l-1.79,8.48a.86.86,0,0,0,.68,1l4.23.76s5.61,1.43,7.19.42c4.6-2.94,9-21.59,7.16-23-.69-.51-1.88.26-2.47.87-1.89,1.93-5.92,7.31-7.51,8.9-1.86,1.86-5.17,1.92-6.62,1.84A.84.84,0,0,0,204.16,218.31Z"/><polygon class="cls-7" points="183.16 226.66 197.85 226.67 199.22 218.37 183.28 216.24 183.16 226.66"/><path class="cls-12" d="M127.65,194.07v1.85a2.41,2.41,0,0,0,2.3,2.4h68.39a2.57,2.57,0,0,0,2.47-2.4v-1.85Z"/><path class="cls-10" d="M127.65,194.07v1.85a2.41,2.41,0,0,0,2.3,2.4h68.39a2.57,2.57,0,0,0,2.47-2.4v-1.85Z"/><path class="cls-10" d="M153.17,194.07v1.85a2.42,2.42,0,0,0,2.31,2.4h42.86a2.57,2.57,0,0,0,2.47-2.4v-1.85Z"/><path class="cls-12" d="M155.48,196.62h45.18a3.68,3.68,0,0,0,3.28-2.43l10.36-32.5a1.79,1.79,0,0,0-1.73-2.5H167.39a3.78,3.78,0,0,0-3.29,2.5l-10.36,32.46A1.77,1.77,0,0,0,155.48,196.62Z"/><path class="cls-10" d="M155.48,196.62h45.18a3.68,3.68,0,0,0,3.28-2.43l10.36-32.5a1.79,1.79,0,0,0-1.73-2.5H167.39a3.78,3.78,0,0,0-3.29,2.5l-10.36,32.46A1.77,1.77,0,0,0,155.48,196.62Z"/><path class="cls-10" d="M157.18,196.62h43.48a3.68,3.68,0,0,0,3.28-2.43l10.36-32.5a1.79,1.79,0,0,0-1.73-2.5H169.09a3.75,3.75,0,0,0-3.28,2.5l-10.37,32.46A1.77,1.77,0,0,0,157.18,196.62Z"/><path class="cls-10" d="M183.62,179.39c-.56,2.17.52,3.92,2.4,3.92s3.87-1.75,4.43-3.92-.52-3.92-2.41-3.92S184.17,177.23,183.62,179.39Z"/><path class="cls-10" d="M204.16,218.31l-1.79,8.48a.86.86,0,0,0,.68,1l4.23.76s5.61,1.43,7.19.42c4.6-2.94,9-21.59,7.16-23-.69-.51-1.88.26-2.47.87-1.89,1.93-5.92,7.31-7.51,8.9-1.86,1.86-5.17,1.92-6.62,1.84A.84.84,0,0,0,204.16,218.31Z"/><polygon points="107.46 186.34 93.27 186.53 93.54 181.92 107.46 181.62 107.46 186.34"/><polygon points="135.44 181.01 139.67 180.92 141.19 185.9 135.44 185.97 135.44 181.01"/><polygon points="133.63 181.05 133.63 186 109.64 186.31 109.64 181.57 133.63 181.05"/><path class="cls-14" d="M119.8,185.13l-.07-1.92a1.91,1.91,0,0,1,1.76-2l4.33-.18a1.79,1.79,0,0,1,1.32.52,2,2,0,0,1,.58,1.35l.07,1.93a1.9,1.9,0,0,1-1.75,2l-4.34.18h-.07A1.89,1.89,0,0,1,119.8,185.13ZM126,186a1.1,1.1,0,0,0,1-1.18L127,182.9a1.17,1.17,0,0,0-.34-.79,1,1,0,0,0-.77-.3l-4.33.19a1.11,1.11,0,0,0-1,1.17l.07,1.93a1.09,1.09,0,0,0,1.11,1.09Z"/><path class="cls-14" d="M120.55,184.5h2.17a.5.5,0,0,0,.5-.5.5.5,0,0,0-.5-.5h-2.17a.5.5,0,0,0-.5.5A.5.5,0,0,0,120.55,184.5Z"/><path class="cls-2" d="M145.5,133.56s-5.47,34.58-3.19,46.95L91.73,182s6-35.73,13.94-49.2C105.67,132.78,118.89,110.71,145.5,133.56Z"/><path class="cls-15" d="M145.5,133.56s-5.47,34.58-3.19,46.95L91.73,182s6-35.73,13.94-49.2C105.67,132.78,118.89,110.71,145.5,133.56Z"/><path class="cls-13" d="M115.82,125.86s8.39,8.19,13.23,6.85,6.67-3.8,6.67-3.8-3.89-1.72-3.47-2.64c.05-.11.18-.3.35-.58,1.44-2.19,6.59-9.22,6.59-9.22l-11-6.18s-.91,2.13-2,4.67a74.53,74.53,0,0,1-4,8.23C121.05,124.53,115.82,125.86,115.82,125.86Z"/><path class="cls-7" d="M126.14,115c.69,3.89,2.38,8.49,6.46,10.73,1.44-2.19,6.59-9.22,6.59-9.22l-11-6.18S127.24,112.42,126.14,115Z"/><path class="cls-12" d="M123.92,107.32a19.46,19.46,0,0,0-.89,6c.22,2.47-2.55,3.31-2.9,1.8,0,0,.05,3.66,2.43,3.11,0,0,0,2.52,2.12,2.56a13.88,13.88,0,0,0,2.65-8.57C127,107.45,123.92,107.32,123.92,107.32Z"/><path class="cls-12" d="M142.93,95.19c-3.6,1.49-3,9.85,3,17,3.68-3.16,5.35-10.46,4.48-13.34C149,94.24,146.07,93.9,142.93,95.19Z"/><path class="cls-13" d="M148.18,115.54v0a25.27,25.27,0,0,1-1.15,2.81c-3.55,7.23-13.75,8.63-18.27,1.48l-.06-.07c-3-4.81-1.86-9.3-.62-17.09a10.77,10.77,0,0,1,16.81-7.22C150.81,99.59,150.45,108.9,148.18,115.54Z"/><path class="cls-12" d="M139.07,107.38c-.14.62.08,1.21.49,1.3s.85-.34,1-1-.08-1.2-.48-1.3S139.25,106.77,139.07,107.38Z"/><path class="cls-12" d="M146.17,109c-.14.63.08,1.21.49,1.3s.86-.34,1-1-.08-1.21-.49-1.29S146.31,108.36,146.17,109Z"/><path class="cls-16" d="M143.79,108.76a23,23,0,0,0,1.79,6,3.71,3.71,0,0,1-3.12-.11Z"/><path class="cls-12" d="M137.63,104.7a.32.32,0,0,1-.22-.1.38.38,0,0,1,0-.53,3.71,3.71,0,0,1,3.33-.85.37.37,0,0,1,.26.44v0a.39.39,0,0,1-.47.25h0a3,3,0,0,0-2.62.7A.38.38,0,0,1,137.63,104.7Z"/><path class="cls-12" d="M150,107.31a.38.38,0,0,1-.29-.28,3,3,0,0,0-1.7-2.13.37.37,0,0,1-.22-.48.39.39,0,0,1,.48-.23,3.77,3.77,0,0,1,2.17,2.67.38.38,0,0,1-.28.45H150Z"/><path class="cls-17" d="M136.41,114.74A5.53,5.53,0,0,0,141,118.2"/><path class="cls-12" d="M149.71,101.42s2.32-1.78,2.22-3.86a7.6,7.6,0,0,0-4.08-6.3,14.85,14.85,0,0,0-7.26-2c-8.87-.52-13.69,2.14-15.21,6.88-.94,1.68-.91,4.79-.07,7.71,0,0,0,0,0,.06h0a12.82,12.82,0,0,0,2.32,4.59c5.39-4.69,7.41-8,6.56-10.2.17-.06,2.86-2.45,4.05-2.52,1.71-.09,4.89,1.54,7.46,3.07,1.41.84,2.86-.49,2.86-.49Z"/><path class="cls-13" d="M123,108a7.51,7.51,0,0,0,2.5,5.16c2,1.73,4.09.23,4.49-2.23.36-2.21-.25-5.78-2.69-6.56S122.91,105.59,123,108Z"/><path class="cls-2" d="M123,113.29s3.29-12.76,11.4-17.51,16.51-1.43,16.51-1.43a25.64,25.64,0,0,0-.54-3.81c-.25-.39-4.27-1.78-4.27-1.78s-2.28-3.36-5.46-4.45-12.69-1.38-16,1.39-5.52,8.4-4.12,8.5,2.47.1,2.47.1-2.61,9-1.49,10.41C121.54,104.71,119.59,111,123,113.29Z"/><path class="cls-2" d="M139.31,230.1a.2.2,0,0,1,.22-.1.17.17,0,0,1,.15.15c.08.39.6,3.77-.24,4.59a.7.7,0,0,1-.69.14,1.16,1.16,0,0,1-.86-.77,3,3,0,0,1,.23-1.84A12,12,0,0,1,139.31,230.1Zm0,.68a4.84,4.84,0,0,0-1.05,3.16.74.74,0,0,0,.6.53.23.23,0,0,0,.27-.06.82.82,0,0,0,.16-.25A9.37,9.37,0,0,0,139.34,230.78Z"/><polygon class="cls-13" points="161.69 213.54 147.74 218.18 141.04 220.4 142.59 227.72 149.06 226.48 164.86 223.46 161.69 213.54"/><path class="cls-12" d="M144.4,228.1l-1-8.61a.86.86,0,0,0-1-.75l-4.24.62s-5.78.41-7,1.87c-3.43,4.24-1.74,23.34.47,24.06.81.26,1.7-.84,2.07-1.61,1.18-2.43,3.3-8.81,4.31-10.82,1.18-2.36,4.3-3.46,5.7-3.84A.85.85,0,0,0,144.4,228.1Z"/><path class="cls-2" d="M139.34,230a.18.18,0,0,1,.21,0c.14,0,2.43,1,2.82,2.34a1.24,1.24,0,0,1-.1,1,.74.74,0,0,1-.76.5c-1-.13-2.12-2.5-2.23-3.57l0-.1A.34.34,0,0,1,139.34,230Zm2.57,3a.86.86,0,0,0,0-.55c-.25-.81-1.52-1.56-2.18-1.9.3,1.11,1.23,2.7,1.81,2.78.05,0,.18,0,.31-.24l0-.09Z"/><polygon class="cls-7" points="161.69 213.54 147.74 218.18 149.06 226.48 164.86 223.46 161.69 213.54"/><polygon class="cls-2" points="151.49 227.78 155.46 228.15 153.09 214.4 148.52 216.8 151.49 227.78"/><polygon class="cls-8" points="151.49 227.78 155.46 228.15 153.09 214.4 148.52 216.8 151.49 227.78"/><path class="cls-10" d="M144.4,228.1l-1-8.61a.86.86,0,0,0-1-.75l-4.24.62s-5.78.41-7,1.87c-3.43,4.24-1.74,23.34.47,24.06.81.26,1.7-.84,2.07-1.61,1.18-2.43,3.3-8.81,4.31-10.82,1.18-2.36,4.3-3.46,5.7-3.84A.85.85,0,0,0,144.4,228.1Z"/><path class="cls-12" d="M196.52,217.29S131.28,192,111.3,196.19s-20.07,14.69-9.94,24.44,25.26,6,25.26,6-11.89-7.13-11.06-11.53,8.38,5.66,8.38,5.66,39.43,9.65,72,7.1Z"/><polygon class="cls-2" points="197.31 216.24 193.64 214.56 191.54 228.29 196.63 227.45 197.31 216.24"/><polygon class="cls-8" points="197.31 216.24 193.64 214.56 191.54 228.29 196.63 227.45 197.31 216.24"/><path class="cls-2" d="M111.68,123.2s8.82,24,8.37,29.39-18.66,45.73-18.66,45.73l-15,6S89.48,145.05,111.68,123.2Z"/><path class="cls-7" d="M111.68,123.2s8.82,24,8.37,29.39-18.66,45.73-18.66,45.73l-15,6S89.48,145.05,111.68,123.2Z"/><path class="cls-2" d="M143.54,192.87s-4.71-11.19-6.22-17.4,3.77-38.05.93-48.73l7.25,6.82-3.08,39.78Z"/><path class="cls-7" d="M143.54,192.87s-4.71-11.19-6.22-17.4,3.77-38.05.93-48.73l7.25,6.82-3.08,39.78Z"/><path class="cls-12" d="M90,175.47s31.28,6,26.34-51.15l-5.1-.45s3.1,21.72-2.6,35.93-19.18,13.54-19.18,13.54Z"/><path class="cls-2" d="M119.86,150.08l-10.5-24.39-3.18,4.19s-.57-5.91,1.28-7.62,6.94.43,9,.94S119.86,150.08,119.86,150.08Z"/><path class="cls-12" d="M136.41,127.11s4.06,12,3.4,30.78,2.71,17.23,2.71,17.23l.49-1.78s-1.9-.22-1.74-6.55,1-31.87-1.46-38.58Z"/><path class="cls-2" d="M138.53,149.39s1-18-4.05-23.28c0,0,3.79-1.42,5.33,0s1.91,15.13-1.11,24"/><path class="cls-13" d="M113.12,156.71s4.58,10.63,5.62,12.11,23.82,12,23.82,12a20.25,20.25,0,0,1,5.57,0c2.8.45,6.68,1.63,7,2.07s-4.24,7.09-4.24,7.09-9.1.57-10.23-3c0,0-22.84-8.48-25.5-10.69s-10-15.36-10-15.36Z"/><path class="cls-2" d="M107.46,132.86c4.88,0,11.72,29.8,13,33.84S142,179.39,142,179.39L135.54,187s-21.88-7.9-24.45-11.53-10.37-24.33-10.72-29.11S104.23,132.85,107.46,132.86Z"/></g></g></g></svg>