<svg id="visual" viewBox="0 0 960 540" width="960" height="540" xmlns="http://www.w3.org/2000/svg" xmlns:xlink="http://www.w3.org/1999/xlink" version="1.1"><path d="M0 109L87 109L87 93L175 93L175 50L262 50L262 109L349 109L349 66L436 66L436 66L524 66L524 82L611 82L611 98L698 98L698 87L785 87L785 39L873 39L873 93L960 93L960 82L960 0L960 0L873 0L873 0L785 0L785 0L698 0L698 0L611 0L611 0L524 0L524 0L436 0L436 0L349 0L349 0L262 0L262 0L175 0L175 0L87 0L87 0L0 0Z" fill="#22cc9d"></path><path d="M0 147L87 147L87 185L175 185L175 131L262 131L262 158L349 158L349 141L436 141L436 152L524 152L524 131L611 131L611 185L698 185L698 131L785 131L785 71L873 71L873 163L960 163L960 168L960 80L960 91L873 91L873 37L785 37L785 85L698 85L698 96L611 96L611 80L524 80L524 64L436 64L436 64L349 64L349 107L262 107L262 48L175 48L175 91L87 91L87 107L0 107Z" fill="#1abc96"></path><path d="M0 379L87 379L87 287L175 287L175 212L262 212L262 287L349 287L349 303L436 303L436 309L524 309L524 212L611 212L611 341L698 341L698 357L785 357L785 195L873 195L873 357L960 357L960 374L960 166L960 161L873 161L873 69L785 69L785 129L698 129L698 183L611 183L611 129L524 129L524 150L436 150L436 139L349 139L349 156L262 156L262 129L175 129L175 183L87 183L87 145L0 145Z" fill="#16ad8e"></path><path d="M0 492L87 492L87 487L175 487L175 422L262 422L262 411L349 411L349 455L436 455L436 422L524 422L524 401L611 401L611 498L698 498L698 455L785 455L785 487L873 487L873 465L960 465L960 455L960 372L960 355L873 355L873 193L785 193L785 355L698 355L698 339L611 339L611 210L524 210L524 307L436 307L436 301L349 301L349 285L262 285L262 210L175 210L175 285L87 285L87 377L0 377Z" fill="#169e85"></path><path d="M0 541L87 541L87 541L175 541L175 541L262 541L262 541L349 541L349 541L436 541L436 541L524 541L524 541L611 541L611 541L698 541L698 541L785 541L785 541L873 541L873 541L960 541L960 541L960 453L960 463L873 463L873 485L785 485L785 453L698 453L698 496L611 496L611 399L524 399L524 420L436 420L436 453L349 453L349 409L262 409L262 420L175 420L175 485L87 485L87 490L0 490Z" fill="#188f7c"></path></svg>