<svg viewBox="0 0 900 100" xmlns="http://www.w3.org/2000/svg" xmlns:xlink="http://www.w3.org/1999/xlink" version="1.1"><path d="M0 27L69 27L69 95L138 95L138 91L208 91L208 50L277 50L277 70L346 70L346 23L415 23L415 94L485 94L485 86L554 86L554 19L623 19L623 36L692 36L692 79L762 79L762 70L831 70L831 21L900 21L900 30L900 101L900 101L831 101L831 101L762 101L762 101L692 101L692 101L623 101L623 101L554 101L554 101L485 101L485 101L415 101L415 101L346 101L346 101L277 101L277 101L208 101L208 101L138 101L138 101L69 101L69 101L0 101Z" fill="#ffffff" stroke-linecap="square" stroke-linejoin="miter"></path></svg>
