<svg xmlns="http://www.w3.org/2000/svg" viewBox="0 0 309.7 212.15"><defs><style>.cls-1{fill:#333;}.cls-2{fill:#22cc9d;}</style></defs><g id="Layer_2" data-name="Layer 2"><g id="Layer_1-2" data-name="Layer 1"><g id="eb23968c-7a5e-4cc7-817c-c79da6554b93"><path class="cls-1" d="M35.4,138.45c-.24-5.9-3-9.6-7.68-11,5-1.87,8.07-6.19,8.07-12,0-8.07-5.77-13.21-14.85-13.21H0v46.55H7.35V130.72H20.8c4.42,0,7.11,3.46,7.25,8.65a67.33,67.33,0,0,0,.63,9.46h7.64C35.79,147.15,35.5,142.78,35.4,138.45ZM20.18,124.81H7.35v-16H20.18c5,0,8.07,3,8.07,7.93S25.17,124.81,20.18,124.81Zm53.08-9.08H66.39v19.46c0,5.19-3.32,8.55-8.26,8.55s-8.22-3.36-8.22-8.55V115.73H43v19.46c0,8.45,6.15,14.26,15.13,14.26s15.09-5.81,15.09-14.26Zm27.09-.57a15.57,15.57,0,0,0-12.1,5.38v-4.81H81.38v46.55h6.87V144.07a15.57,15.57,0,0,0,12.1,5.38c9.37,0,16.14-7.2,16.14-17.14S109.72,115.16,100.35,115.16Zm-1.49,28.29c-6.19,0-10.61-4.66-10.61-11.14s4.42-11.2,10.61-11.2,10.57,4.71,10.57,11.2S105,143.45,98.86,143.45Zm57.51-11.1c-.05-10-7.4-17.19-17.64-17.19s-17.67,7.15-17.67,17.15,7.49,17.14,17.67,17.14c8.17,0,15.23-5.28,17.11-12.58h-7a10.42,10.42,0,0,1-10,6.92,10.79,10.79,0,0,1-11-9.37h28.29A9.62,9.62,0,0,0,156.37,132.35Zm-17.54-11.57a11,11,0,0,1,10.95,8.35H128.07A10.72,10.72,0,0,1,138.83,120.78Zm57.36,11.57c-.05-10-7.4-17.19-17.63-17.19s-17.68,7.15-17.68,17.15,7.45,17.14,17.68,17.14c8.17,0,15.23-5.28,17.1-12.58h-7a10.43,10.43,0,0,1-10,6.92,10.89,10.89,0,0,1-11-9.37H196A10.29,10.29,0,0,0,196.19,132.35Zm-17.54-11.57a11,11,0,0,1,11,8.35H167.89A10.73,10.73,0,0,1,178.65,120.78Zm62.41-18.5H221.79v46.55h7.35V132.4h11.92c9.12,0,15.47-6.1,15.47-15.13S250.18,102.28,241.06,102.28Zm-.77,23.88H229.14V108.81h11.15c5.28,0,8.69,3.37,8.69,8.6S245.57,126.16,240.29,126.16Zm47.22-10.43v4.81a15.52,15.52,0,0,0-12-5.38c-9.37,0-16.24,7.15-16.24,17.15s6.87,17.14,16.24,17.14a15.52,15.52,0,0,0,12-5.38v4.76h6.87v-33.1Zm-10.62,27.72c-6.1,0-10.56-4.66-10.56-11.14s4.46-11.2,10.56-11.2,10.62,4.71,10.62,11.2S283.09,143.45,276.89,143.45Zm25.94-41.17v46.55h6.87V102.28Z"/></g><g id="af6bee3c-5630-4143-9949-b5f59c444ca2"><path class="cls-2" d="M206.67,0a9.71,9.71,0,0,1,9.67,9.67V80.33A9.71,9.71,0,0,1,206.66,90H119.93a9.71,9.71,0,0,1-9.67-9.67V64.82H96.45a2.84,2.84,0,0,1-2-.83,2.54,2.54,0,0,1-.61-.87A3.07,3.07,0,0,1,93.66,62V47.66a2.83,2.83,0,0,1,2.79-2.79h13.81V29.49a9.71,9.71,0,0,1,9.67-9.67h8.41v-17a2.66,2.66,0,0,1,.17-1,3.09,3.09,0,0,1,.61-.91,2.87,2.87,0,0,1,2-.83Zm0,5.58H133.91V19.82h72.75a9.41,9.41,0,0,1,4.1.92V9.67a4.09,4.09,0,0,0-4.1-4.09h0ZM126.86,50.44H99.24v8.81h27.62Zm76.19,2.44a2.91,2.91,0,0,0-1.09.22,3,3,0,0,0-.91.61,2.89,2.89,0,0,0-.83,2c.1,9,.42,14.9-.35,17-.39,1-.56,1.23-1.74,1.61a20.67,20.67,0,0,1-6.93.26,2.87,2.87,0,0,0-1.09.13,3.18,3.18,0,0,0-1,.52,2.63,2.63,0,0,0-.65.83,3,3,0,0,0-.31,1.09,2.92,2.92,0,0,0,.65,2,2.69,2.69,0,0,0,.88.65,2.85,2.85,0,0,0,1,.31c3.77.3,6.64.26,9.11-.53a8.4,8.4,0,0,0,5.27-5c1.7-4.58.8-10.14.69-19a2.64,2.64,0,0,0-.17-1.08,2.68,2.68,0,0,0-.61-.88,2.87,2.87,0,0,0-2-.83Z"/></g><g id="e0cf67fa-f938-4823-9f49-cf175d678327"><path class="cls-1" d="M46.41,206.83a2.3,2.3,0,0,0,1.38-2.3c0-1.23-.82-2.7-3.23-2.7H40V212h4.84c2.32,0,3.47-1.16,3.47-2.69A2.53,2.53,0,0,0,46.41,206.83Zm-5.26-3.9h3.54a1.69,1.69,0,0,1,1.94,1.7c0,1.24-1,1.77-2.07,1.77H41.15Zm3.8,8h-3.8v-3.5h3.68c1.62,0,2.32.86,2.32,1.82S46.36,210.94,45,210.94ZM61.65,208l4.27-6.16h-1.4l-3.45,5-3.45-5h-1.4L60.5,208v4h1.15Zm31.27-6.16v4.53H87v-4.53H85.84V212H87v-4.54h5.93V212h1.15v-10.2Zm15.91,0h-1.44L103.06,212h1.27l1.26-3h5l1.25,3h1.28ZM106,208l2.07-5,2.08,5Zm16.8-3.49c0-.68.39-1.73,2.7-1.73,1.87,0,2.73.81,2.85,1.84h1.19c-.09-1.53-1.32-2.92-4-2.92-2.55,0-3.82,1.16-3.82,2.82,0,3.49,7,2.23,7,4.73,0,1.19-1.08,1.8-2.81,1.8s-3.2-.61-3.27-2.08h-1.2c.15,1.83,1.38,3.17,4.4,3.17,2.5,0,4-1.05,4-2.94C129.83,205.65,122.83,206.88,122.83,204.52Zm21-2.69h-1.45L138.11,212h1.27l1.26-3h5l1.25,3h1.27Zm-2.8,6.18,2.08-5,2.07,5Zm22.44-6.18h-8.26V203h3.55V212H160V203h3.55Zm16.24,0v4.53h-5.93v-4.53h-1.15V212h1.15v-4.54h5.93V212h1.15v-10.2Zm15.72,9.2a4.1,4.1,0,0,1,0-8.19,3.35,3.35,0,0,1,3.31,2H200a4.68,4.68,0,0,0-4.62-3.17c-3,0-4.92,2.32-4.92,5.23s1.87,5.21,4.92,5.21A4.68,4.68,0,0,0,200,209h-1.21A3.36,3.36,0,0,1,195.48,211Zm21-9.2v4.53h-5.92v-4.53h-1.16V212h1.16v-4.54h5.92V212h1.16v-10.2Zm15.92,0H231L226.65,212h1.28l1.24-3h5.06l1.24,3h1.27Zm-2.8,6.18,2.08-5,2.08,5Zm17.27.1h3.54L252.9,212h1.36l-2.67-4.12a2.79,2.79,0,0,0,2.46-2.89,3.11,3.11,0,0,0-3.43-3.19h-4.88V212h1.15Zm0-5.18h3.59c1.45,0,2.42.8,2.42,2.09,0,1.59-1.39,2-2.49,2h-3.52Zm24.22-1.1v5.84a3.18,3.18,0,1,1-6.35,0v-5.84H263.6v5.81a4.34,4.34,0,1,0,8.67,0v-5.81Z"/></g></g></g></svg>