<svg xmlns="http://www.w3.org/2000/svg" viewBox="0 0 220 43.09"><defs><style>.cls-1{fill:#333;}.cls-2{fill:#22cc9d;}</style></defs><g id="Layer_2" data-name="Layer 2"><g id="Layer_1-2" data-name="Layer 1"><g id="_0a864975-828d-402a-a1d1-1c70cfbfe6d0" data-name="0a864975-828d-402a-a1d1-1c70cfbfe6d0"><path class="cls-1" d="M88.68,24.5c-.12-2.83-1.43-4.6-3.68-5.27a5.78,5.78,0,0,0,3.86-5.72c0-3.87-2.76-6.33-7.1-6.33h-10V29.47h3.52V20.8h6.44c2.11,0,3.4,1.65,3.47,4.14a32.29,32.29,0,0,0,.3,4.53h3.66A25.08,25.08,0,0,1,88.68,24.5ZM81.39,18H75.25V10.31h6.14a3.54,3.54,0,0,1,3.86,3.79A3.6,3.6,0,0,1,81.39,18Zm25.41-4.35h-3.29v9.32a3.95,3.95,0,1,1-7.89,0V13.62H92.34v9.32c0,4,2.94,6.83,7.24,6.83s7.22-2.79,7.22-6.83Zm13-.28A7.46,7.46,0,0,0,114,15.92v-2.3h-3.29V35.91H114V27.19a7.46,7.46,0,0,0,5.79,2.58c4.49,0,7.73-3.45,7.73-8.21S124.26,13.34,119.77,13.34Zm-.71,13.55A5,5,0,0,1,114,21.56a5.08,5.08,0,1,1,10.14,0A5,5,0,0,1,119.06,26.89Zm27.53-5.31a8.05,8.05,0,0,0-8.44-8.24c-4.88,0-8.46,3.43-8.46,8.22a8.08,8.08,0,0,0,8.46,8.21,8.35,8.35,0,0,0,8.19-6H143a5,5,0,0,1-4.79,3.31A5.17,5.17,0,0,1,133,22.57H146.5A4.74,4.74,0,0,0,146.59,21.58ZM138.19,16a5.25,5.25,0,0,1,5.25,4H133A5.14,5.14,0,0,1,138.19,16Zm27.46,5.54a8.05,8.05,0,0,0-8.44-8.24c-4.89,0-8.46,3.43-8.46,8.22a8.07,8.07,0,0,0,8.46,8.21,8.35,8.35,0,0,0,8.19-6H162a5,5,0,0,1-4.78,3.31A5.21,5.21,0,0,1,152,22.57h13.57A4.74,4.74,0,0,0,165.65,21.58ZM157.26,16a5.24,5.24,0,0,1,5.24,4H152.11A5.13,5.13,0,0,1,157.26,16Zm29.88-8.86h-9.23V29.47h3.52V21.6h5.71c4.37,0,7.4-2.92,7.4-7.24S191.51,7.18,187.14,7.18Zm-.37,11.43h-5.34v-8.3h5.34a3.87,3.87,0,0,1,4.16,4.12A3.94,3.94,0,0,1,186.77,18.61Zm22.6-5v2.3a7.43,7.43,0,0,0-5.74-2.58c-4.49,0-7.78,3.43-7.78,8.22s3.29,8.21,7.78,8.21a7.43,7.43,0,0,0,5.74-2.58v2.28h3.29V13.62Zm-5.08,13.27a5,5,0,0,1-5.06-5.33,5.08,5.08,0,1,1,10.14,0A5,5,0,0,1,204.29,26.89ZM216.71,7.18V29.47H220V7.18Z"/></g><g id="_8198f180-6902-41ba-93dd-ddced321cd8e" data-name="8198f180-6902-41ba-93dd-ddced321cd8e"><path class="cls-2" d="M54.1,0a4.65,4.65,0,0,1,4.63,4.63V38.46a4.65,4.65,0,0,1-4.63,4.63H12.58A4.65,4.65,0,0,1,8,38.46V31H1.33a1.35,1.35,0,0,1-.93-.39,1.25,1.25,0,0,1-.3-.42A1.55,1.55,0,0,1,0,29.7V22.82a1.37,1.37,0,0,1,1.33-1.34H8V14.12a4.65,4.65,0,0,1,4.63-4.63h4V1.33a1.45,1.45,0,0,1,.08-.5A1.28,1.28,0,0,1,17,.4a1.33,1.33,0,0,1,1-.4Zm0,2.67H19.27V9.49H54.1a4.47,4.47,0,0,1,2,.44V4.63a2,2,0,0,0-2-2ZM15.89,24.15H2.67v4.21H15.89Zm36.48,1.17a1.3,1.3,0,0,0-.52.1,1.35,1.35,0,0,0-.44.29,1.25,1.25,0,0,0-.29.44,1.39,1.39,0,0,0-.11.52c.05,4.33.21,7.14-.16,8.14-.19.5-.27.59-.84.77a9.67,9.67,0,0,1-3.31.12,1.36,1.36,0,0,0-.53.07,1.38,1.38,0,0,0-.48.25,1.3,1.3,0,0,0-.31.39,1.39,1.39,0,0,0-.14.52,1.19,1.19,0,0,0,.06.53,1.3,1.3,0,0,0,.25.46,1.31,1.31,0,0,0,.42.31,1.2,1.2,0,0,0,.5.14,11.27,11.27,0,0,0,4.36-.25,4,4,0,0,0,2.52-2.39c.81-2.2.38-4.86.33-9.08a1.32,1.32,0,0,0-.08-.52,1.5,1.5,0,0,0-.29-.42A1.38,1.38,0,0,0,52.37,25.32Z"/></g></g></g></svg>