<svg xmlns="http://www.w3.org/2000/svg" viewBox="0 0 683.04 427.4"><defs><style>.cls-1{fill:#ebebeb;}.cls-2{fill:#e0e0e0;}.cls-3{fill:#f5f5f5;}.cls-4{fill:#fff;}.cls-5{fill:#263238;}.cls-6{fill:#455a64;}.cls-7{fill:#22cc9d;}.cls-8{opacity:0.8;}.cls-9{opacity:0.4;}.cls-10{opacity:0.5;}.cls-11{fill:#fafafa;}.cls-12{opacity:0.3;}.cls-13{fill:#b78876;}.cls-14{fill:#aa6550;}</style></defs><g id="Layer_2" data-name="Layer 2"><g id="Background_Complete" data-name="Background Complete"><path class="cls-1" d="M32.28,182.63s-8.35-.6-7.58,18.14,2.68,28.71,2.68,28.71-.25,4.16-3.47,3.34S14.64,228,11.65,231s-2,8,2.12,13.61S26.44,263,27.21,264.14s1.05,3.26-1.23,3.06-17.67-5.42-19.71,2,12,21.35,13.51,22.9,1.59,2.52,1,3.46S15.14,294.28,10.7,293s-9.81-2-10.63,2.36,5.37,17.27,28.54,30.8l11.15,5.57L50.31,325C72,309.2,76.89,295.77,75.63,291.47s-6.52-3-10.81-1.28-9,4.47-9.75,3.6-.72-1.85.63-3.54,13.93-16.92,11.16-24.13-17.57-.48-19.82-.05-2.16-1.72-1.53-2.92,7.89-14.75,11.42-20.8,4.14-10.94.74-13.75-8.89,1.92-12,3.05-3.78-3-3.78-3,.9-10.12-.21-28.84-9.56-17.21-9.56-17.21"/><path class="cls-2" d="M32.94,199.41s0,.13.05.39,0,.66.08,1.15c.07,1,.18,2.52.3,4.43.26,3.84.59,9.4,1,16.28.76,13.75,1.66,32.75,2.57,53.75s1.77,40,2.45,53.76c.35,6.86.63,12.42.83,16.28.1,1.91.17,3.4.22,4.43,0,.49,0,.88.05,1.15s0,.4,0,.4,0-.14-.05-.39,0-.66-.09-1.15c-.06-1-.17-2.52-.3-4.43-.25-3.84-.58-9.4-1-16.28-.76-13.75-1.66-32.76-2.57-53.76s-1.77-40-2.45-53.75c-.35-6.86-.64-12.42-.83-16.28-.1-1.91-.17-3.4-.22-4.43,0-.5,0-.88-.05-1.16A3.81,3.81,0,0,1,32.94,199.41Z"/><path class="cls-2" d="M19.89,237a3.57,3.57,0,0,1,.7.58c.43.39,1,1,1.77,1.7,1.47,1.46,3.45,3.52,5.59,5.84s4,4.37,5.45,6l1.66,1.8a3.73,3.73,0,0,1,.58.69,4.12,4.12,0,0,1-.7-.57c-.43-.4-1-1-1.76-1.71-1.46-1.48-3.41-3.57-5.55-5.89l-5.49-5.92-1.67-1.79A4,4,0,0,1,19.89,237Z"/><path class="cls-2" d="M36.74,253.19c-.08-.08,4-4.35,9.11-9.54s9.33-9.31,9.41-9.23-4,4.35-9.11,9.53S36.83,253.27,36.74,253.19Z"/><path class="cls-2" d="M36.7,285.5a3.32,3.32,0,0,1,.78-.5l2.18-1.22c1.84-1,4.37-2.47,7.11-4.16s5.18-3.28,6.94-4.46l2.08-1.38a3.16,3.16,0,0,1,.79-.47,4.08,4.08,0,0,1-.7.6c-.46.37-1.14.88-2,1.5-1.71,1.24-4.13,2.89-6.88,4.58s-5.32,3.09-7.2,4.05c-.94.48-1.71.86-2.25,1.11A4.23,4.23,0,0,1,36.7,285.5Z"/><path class="cls-2" d="M18.23,274.19a2.76,2.76,0,0,1,.77.36l2,1.12c1.7,1,4,2.33,6.59,3.85s4.86,2.92,6.52,4c.83.52,1.5.94,1.95,1.24a3.81,3.81,0,0,1,.69.5,2.76,2.76,0,0,1-.77-.36c-.48-.25-1.17-.64-2-1.12-1.7-1-4-2.32-6.59-3.84s-4.86-2.93-6.52-4c-.83-.51-1.5-.94-1.95-1.24A3.81,3.81,0,0,1,18.23,274.19Z"/><path class="cls-2" d="M14.57,302.7a6.64,6.64,0,0,1,1,.48l2.59,1.43c2.18,1.22,5.18,2.94,8.48,4.86s6.28,3.68,8.42,5L37.56,316a4.28,4.28,0,0,1,.9.62,6.64,6.64,0,0,1-1-.48l-2.59-1.43c-2.18-1.22-5.18-2.94-8.48-4.86s-6.28-3.68-8.42-5l-2.53-1.55A4.35,4.35,0,0,1,14.57,302.7Z"/><path class="cls-2" d="M38,316.11a8.66,8.66,0,0,1,1-.65l2.71-1.65c2.29-1.39,5.44-3.32,8.86-5.56s6.48-4.32,8.67-5.85l2.61-1.81a6.31,6.31,0,0,1,1-.62,5.61,5.61,0,0,1-.88.75c-.59.47-1.45,1.13-2.53,1.92-2.15,1.6-5.18,3.74-8.61,6s-6.62,4.14-8.94,5.46c-1.17.67-2.12,1.19-2.78,1.54A5.33,5.33,0,0,1,38,316.11Z"/><polygon class="cls-2" points="54.74 335.35 23.9 335.35 33.96 411.55 44.67 411.55 54.74 335.35"/><path class="cls-3" d="M25.5,344.72s0,.11.16.27a2,2,0,0,0,.75.53,3.69,3.69,0,0,0,3.25-.4c1.25-.68,2.33-2,4-2.63a8.77,8.77,0,0,1,5.67.11,24.51,24.51,0,0,1,5.29,2.56,35.19,35.19,0,0,0,4.29,2.31,11.85,11.85,0,0,0,3.17.91,5.43,5.43,0,0,0,.89.06,1.2,1.2,0,0,0,.32,0,16.18,16.18,0,0,1-4.24-1.28,42.59,42.59,0,0,1-4.2-2.38,23.57,23.57,0,0,0-5.37-2.64,9,9,0,0,0-6-.06,8.15,8.15,0,0,0-2.26,1.39,17.34,17.34,0,0,1-1.76,1.37,3.6,3.6,0,0,1-3,.52A3.13,3.13,0,0,1,25.5,344.72Z"/><path class="cls-3" d="M26.62,358.75s.25-.31.73-.81a6.9,6.9,0,0,1,2.46-1.57,11.15,11.15,0,0,1,4.29-.64,44.21,44.21,0,0,1,5.37.73,18.71,18.71,0,0,0,5.49.23,15.34,15.34,0,0,0,4.33-1.24,13.62,13.62,0,0,0,2.6-1.54,3.45,3.45,0,0,0,.82-.74,29.43,29.43,0,0,1-3.56,2,16.33,16.33,0,0,1-4.24,1.1,19,19,0,0,1-5.36-.27,41.25,41.25,0,0,0-5.43-.7,11.13,11.13,0,0,0-4.44.78,6.73,6.73,0,0,0-2.48,1.76,4.48,4.48,0,0,0-.46.69C26.65,358.65,26.61,358.74,26.62,358.75Z"/><path class="cls-3" d="M51.25,366.27a2.45,2.45,0,0,0-.85-.44,9.16,9.16,0,0,0-2.56-.55,16,16,0,0,0-3.86.22c-1.44.23-3,.63-4.6,1a19.61,19.61,0,0,1-4.6.52,10,10,0,0,1-3.64-.79,8.44,8.44,0,0,1-2.77-2.06,2.3,2.3,0,0,0,.52.81,6.5,6.5,0,0,0,2.1,1.57,9.54,9.54,0,0,0,3.77.93,18.31,18.31,0,0,0,4.72-.49c1.64-.34,3.17-.75,4.57-1a17.64,17.64,0,0,1,3.77-.33A14,14,0,0,1,51.25,366.27Z"/><path class="cls-3" d="M29.35,376.83a5.12,5.12,0,0,1,3-.3,14.72,14.72,0,0,1,3.14,1.17,11.79,11.79,0,0,0,4.06,1.12,12.22,12.22,0,0,0,7.38-1.71,10.33,10.33,0,0,0,1.84-1.41,3.22,3.22,0,0,0,.54-.65,30.53,30.53,0,0,1-2.56,1.75,12.57,12.57,0,0,1-7.15,1.52c-2.92-.17-5.16-1.91-7.19-2.14a4.61,4.61,0,0,0-2.32.2A1.59,1.59,0,0,0,29.35,376.83Z"/><path class="cls-3" d="M31.07,391.46a5.89,5.89,0,0,0,2.57-.51c1.55-.52,3.47-1.71,5.71-2.6a9.12,9.12,0,0,1,3.27-.68,5.91,5.91,0,0,1,2.64.6,5.77,5.77,0,0,1,1.91,1.64,1.41,1.41,0,0,0-.3-.65A4.27,4.27,0,0,0,45.43,388a6,6,0,0,0-2.8-.75,9.29,9.29,0,0,0-3.46.68c-2.32.93-4.18,2.15-5.66,2.74S31.05,391.38,31.07,391.46Z"/><path class="cls-3" d="M32.58,398.26a6.88,6.88,0,0,0,2,.64,36.31,36.31,0,0,0,4.88.82,35.06,35.06,0,0,0,5,.14,7,7,0,0,0,2-.24c0-.15-3.13,0-6.94-.4S32.62,398.12,32.58,398.26Z"/><path class="cls-3" d="M657.6,20.39,600.83,0,544.6,20.11c-7.17,3.39-13.47,5.42-13.47,12.11V65.51a125.87,125.87,0,0,0,18.52,66.26,115.32,115.32,0,0,0,51.73,45.69c23-7.47,40.14-27.37,50.62-44.39a125.78,125.78,0,0,0,18.52-66.26V36.87C670.52,27.34,665.47,22.68,657.6,20.39Z"/><path class="cls-1" d="M601.38,158.13c-19.78-8.81-32.63-23-40.93-36.44A99.54,99.54,0,0,1,545.8,69.27V45.92c0-5.29,3.19-10.25,9.53-13.2l45.51-17V0L544.6,20.11c-5.9,2.58-13.47,5.42-13.47,12.11V65.51a125.87,125.87,0,0,0,18.52,66.26,115.32,115.32,0,0,0,51.73,45.69Z"/><path class="cls-2" d="M601.38,177.46a68.45,68.45,0,0,0,11.15-4.79,99.81,99.81,0,0,0,23.61-18.57c6.86-7.13,12-14.85,16.42-22.06a121,121,0,0,0,18-66.89l0-27.49c0-13.68-7.06-14.69-13-17.27L600.83,0V15.7l46,17.29c6.34,3,9.53,7.91,9.53,13.2V69.55A99.55,99.55,0,0,1,641.75,122c-8.29,13.47-20.59,27.35-40.37,36.16Z"/><path class="cls-2" d="M615.89,67.78l.06-4.5a14.74,14.74,0,0,0-29.48,0l-.06,4.58a8.24,8.24,0,0,0-7,8.15v26.5a8.26,8.26,0,0,0,8.25,8.25h27.52a8.25,8.25,0,0,0,8.24-8.25V76A8.24,8.24,0,0,0,615.89,67.78ZM605.14,95.89H598l1.12-5.2a4.39,4.39,0,1,1,4.75-.08C604.33,92.63,605.14,95.89,605.14,95.89Zm7.57-28.15H589.58l.07-4.46a11.57,11.57,0,0,1,23.13,0Z"/><path class="cls-4" d="M555,67.45c-.13,0-.52-1.73-.85-4.61a79.32,79.32,0,0,1-.46-11.3c.06-2.21.21-4.32.41-6.22a13.23,13.23,0,0,1,1.27-5,5.83,5.83,0,0,1,2.48-2.5c.77-.35,1.25-.34,1.26-.28a6.42,6.42,0,0,0-3.12,3.1,13.83,13.83,0,0,0-1,4.79c-.15,1.89-.27,4-.33,6.17-.13,4.37,0,8.34.17,11.21S555.15,67.43,555,67.45Z"/><path class="cls-4" d="M555.83,81.94c-.27,0-.52-1.36-.55-3s.16-3.07.43-3.08.53,1.37.56,3.06S556.11,81.94,555.83,81.94Z"/></g><g id="Floor"><path class="cls-5" d="M683,411.62c0,.14-152.65.26-340.9.26s-340.92-.12-340.92-.26,152.61-.26,340.92-.26S683,411.47,683,411.62Z"/></g><g id="Device"><path class="cls-6" d="M561.37,28.26H127.45A13.55,13.55,0,0,0,113.9,41.8V348.3a13.55,13.55,0,0,0,13.55,13.54H294s10.59,32.76-22.25,49.71H427.47s-37.08-12.71-27.55-49.71H561.38a13.54,13.54,0,0,0,13.54-13.54V41.8A13.54,13.54,0,0,0,561.37,28.26Z"/><path class="cls-5" d="M350.2,329.61c5.91,8.43-3.33,17.67-11.77,11.77a2.78,2.78,0,0,1-.72-.73c-5.89-8.43,3.34-17.66,11.77-11.77A2.94,2.94,0,0,1,350.2,329.61Z"/><path class="cls-4" d="M131.07,33.87H557.75a9.7,9.7,0,0,1,9.7,9.7v262.2a0,0,0,0,1,0,0H121.37a0,0,0,0,1,0,0V43.57A9.7,9.7,0,0,1,131.07,33.87Z"/><path class="cls-1" d="M130.53,33.87H559.93a7.52,7.52,0,0,1,7.52,7.52V56.47a0,0,0,0,1,0,0H121.37a0,0,0,0,1,0,0V43A9.15,9.15,0,0,1,130.53,33.87Z"/><circle class="cls-2" cx="135.58" cy="45.64" r="3.13"/><circle class="cls-2" cx="144.92" cy="45.64" r="3.13"/><circle class="cls-2" cx="153.8" cy="45.64" r="3.13"/><path class="cls-5" d="M483.8,361.89c0,.14-61.75.26-137.91.26S208,362,208,361.89s61.74-.27,137.91-.27S483.8,361.74,483.8,361.89Z"/><path class="cls-7" d="M413.31,94.73l-68-25.06L277.94,94.39c-8.6,4.17-16.14,6.66-16.14,14.88v40.9A157.62,157.62,0,0,0,284,231.59c12.56,20.91,32,42.45,62,56.14,27.54-9.18,48.09-33.63,60.65-54.54a157.64,157.64,0,0,0,22.19-81.42V115C428.79,103.27,422.74,97.55,413.31,94.73Z"/><g class="cls-8"><path class="cls-4" d="M413.31,94.73l-68-25.06L277.94,94.39c-8.6,4.17-16.14,6.66-16.14,14.88v40.9A157.62,157.62,0,0,0,284,231.59c12.56,20.91,32,42.45,62,56.14,27.54-9.18,48.09-33.63,60.65-54.54a157.64,157.64,0,0,0,22.19-81.42V115C428.79,103.27,422.74,97.55,413.31,94.73Z"/></g><path class="cls-7" d="M386.83,198.29h-12.5v-68a29,29,0,0,0-58.07,0v68h-12.5v-68a41.54,41.54,0,0,1,83.07,0Z"/><g class="cls-9"><path d="M386.83,198.29h-12.5v-68a29,29,0,0,0-58.07,0v68h-12.5v-68a41.54,41.54,0,0,1,83.07,0Z"/></g><rect class="cls-7" x="289.32" y="168.03" width="111.95" height="71.82" rx="5.81"/><g class="cls-10"><path d="M354.65,194.58a9.36,9.36,0,1,0-11.91,9v14h5.11v-14A9.33,9.33,0,0,0,354.65,194.58Z"/></g><path class="cls-11" d="M295.29,233c-.26,0-.47-12-.47-26.75s.21-26.75.47-26.75.46,12,.46,26.75S295.55,233,295.29,233Z"/><path class="cls-11" d="M338,206.58s-.44-.15-1.1-.63a11.38,11.38,0,0,1-2.41-2.45,13.11,13.11,0,0,1,4.66-19.68,11.48,11.48,0,0,1,3.25-1.12c.81-.13,1.26-.12,1.26-.06a28.19,28.19,0,0,0-4.2,1.75A13,13,0,0,0,335,203.12,28.35,28.35,0,0,0,338,206.58Z"/><path class="cls-7" d="M429.38,271.86l.81-1.09c.13-.17.29-.37.45-.59s.29-.51.46-.79a12,12,0,0,0,1-2.06c.16-.4.35-.83.51-1.28s.27-1,.41-1.49a9.26,9.26,0,0,0,.34-1.65,16.6,16.6,0,0,0,.26-1.82,34.48,34.48,0,0,0-.41-8.77c-1-6.56-3.79-14.29-8.05-22.69a177.76,177.76,0,0,0-17.3-26.9,275.43,275.43,0,0,0-25.8-29,315.23,315.23,0,0,0-33.87-28.9c-6.32-4.65-13-9.16-20-13.4A192.34,192.34,0,0,0,306,119.79,103.53,103.53,0,0,0,281.22,112a43.52,43.52,0,0,0-13.19-.32,24.36,24.36,0,0,0-6.37,1.84,15.88,15.88,0,0,0-8.64,9.67,25.12,25.12,0,0,0-1.12,6.55,44,44,0,0,0,1.82,13.07,104,104,0,0,0,10.52,23.71,193,193,0,0,0,14.12,20.77c5,6.5,10.26,12.62,15.59,18.37a315.06,315.06,0,0,0,32.58,30.36,274.38,274.38,0,0,0,31.73,22.33A177.76,177.76,0,0,0,387,272.51c8.83,3.27,16.82,5.16,23.46,5.42a34.58,34.58,0,0,0,8.76-.6,17.57,17.57,0,0,0,1.77-.46,9.8,9.8,0,0,0,1.61-.53l1.42-.57c.44-.22.84-.45,1.22-.66a12.19,12.19,0,0,0,1.93-1.25c.26-.2.52-.37.73-.55l.54-.52,1-.93-.95,1-.54.53c-.21.18-.46.36-.73.56a11.61,11.61,0,0,1-1.92,1.28c-.38.21-.78.46-1.22.67l-1.43.59A10.49,10.49,0,0,1,421,277c-.57.14-1.15.37-1.78.47a34.22,34.22,0,0,1-8.8.65c-6.67-.23-14.69-2.09-23.55-5.35a177,177,0,0,1-28.78-14.08,275,275,0,0,1-31.81-22.31A315.71,315.71,0,0,1,293.6,206c-5.35-5.76-10.6-11.88-15.63-18.4a193,193,0,0,1-14.17-20.81A104.55,104.55,0,0,1,253.22,143a44.2,44.2,0,0,1-1.83-13.23,25,25,0,0,1,1.13-6.69,18.62,18.62,0,0,1,3.4-5.94,18.42,18.42,0,0,1,5.52-4,25.29,25.29,0,0,1,6.51-1.89,44.61,44.61,0,0,1,13.36.33,104.34,104.34,0,0,1,24.86,7.8A191.79,191.79,0,0,1,328.46,131c7,4.26,13.72,8.78,20.05,13.44a312.74,312.74,0,0,1,33.88,29,273.59,273.59,0,0,1,25.79,29.06,176.16,176.16,0,0,1,17.27,27c4.24,8.43,7,16.19,8,22.79a34.2,34.2,0,0,1,.36,8.82,17.12,17.12,0,0,1-.27,1.83,10.23,10.23,0,0,1-.35,1.65c-.15.53-.29,1-.43,1.49s-.36.89-.52,1.29a12.65,12.65,0,0,1-1.06,2.06c-.17.28-.31.55-.47.78l-.47.6Z"/><path class="cls-7" d="M461.39,194.59s-.05-.46-.12-1.35q0-.33-.06-.75c0-.27-.12-.57-.18-.89a12.41,12.41,0,0,0-.6-2.22c-.15-.41-.29-.85-.48-1.3s-.44-.9-.68-1.38a9.44,9.44,0,0,0-.84-1.46,16.94,16.94,0,0,0-1-1.53,35.21,35.21,0,0,0-6.14-6.28c-5.13-4.22-12.35-8.13-21.12-11.56a176.77,176.77,0,0,0-30.82-8.56,275.17,275.17,0,0,0-38.53-4.46,317.46,317.46,0,0,0-44.52,1c-7.81.75-15.79,1.82-23.86,3.33a192.44,192.44,0,0,0-24.36,6.11,103.76,103.76,0,0,0-23.62,10.68,43.73,43.73,0,0,0-10.07,8.54,24.46,24.46,0,0,0-3.52,5.62,15.85,15.85,0,0,0,0,13,24.87,24.87,0,0,0,3.52,5.63,44,44,0,0,0,10.06,8.55,103.63,103.63,0,0,0,23.63,10.68A192.16,192.16,0,0,0,292.42,232c8.07,1.51,16.05,2.59,23.86,3.33a316,316,0,0,0,44.52,1,276.71,276.71,0,0,0,38.54-4.45,177.86,177.86,0,0,0,30.82-8.57c8.77-3.43,16-7.34,21.11-11.56a35.21,35.21,0,0,0,6.14-6.28,16.94,16.94,0,0,0,1-1.53,9.44,9.44,0,0,0,.84-1.46l.69-1.38c.18-.45.32-.89.47-1.3a12.56,12.56,0,0,0,.6-2.21c.06-.33.14-.62.18-.9s0-.53.06-.75c.07-.89.12-1.35.12-1.35s0,.46-.07,1.36c0,.22,0,.47,0,.75s-.11.57-.17.9a13.52,13.52,0,0,1-.58,2.24c-.15.41-.29.86-.47,1.31l-.67,1.39a11.11,11.11,0,0,1-.84,1.48,17.06,17.06,0,0,1-1,1.54,34.32,34.32,0,0,1-6.13,6.34c-5.13,4.27-12.36,8.22-21.13,11.68a176.27,176.27,0,0,1-30.86,8.66,274,274,0,0,1-38.59,4.52,315.19,315.19,0,0,1-44.59-.92c-7.82-.74-15.81-1.81-23.91-3.32a193.3,193.3,0,0,1-24.42-6.11,104.06,104.06,0,0,1-23.76-10.74A43.94,43.94,0,0,1,234,207a25.15,25.15,0,0,1-3.6-5.75,16.42,16.42,0,0,1,0-13.38,25.44,25.44,0,0,1,3.6-5.74,44.24,44.24,0,0,1,10.19-8.65,104.39,104.39,0,0,1,23.75-10.73,193.3,193.3,0,0,1,24.42-6.11c8.09-1.51,16.08-2.58,23.9-3.31a313.76,313.76,0,0,1,44.59-.93,275.36,275.36,0,0,1,38.58,4.52,176,176,0,0,1,30.86,8.66c8.78,3.46,16,7.41,21.14,11.68a34.32,34.32,0,0,1,6.13,6.34c.41.5.69,1,1,1.54a11.11,11.11,0,0,1,.84,1.48c.23.49.46,1,.67,1.39s.32.9.47,1.31a13.52,13.52,0,0,1,.58,2.24c.06.33.13.63.17.9s0,.53,0,.76C461.38,194.13,461.39,194.59,461.39,194.59Z"/><path class="cls-7" d="M419,98.4s-.4-.24-1.14-.73l-.63-.41c-.24-.14-.53-.26-.82-.4a12.65,12.65,0,0,0-2.12-.89c-.42-.13-.85-.29-1.32-.42l-1.51-.31a9.63,9.63,0,0,0-1.67-.22,15.3,15.3,0,0,0-1.83-.13,34.44,34.44,0,0,0-8.73,1c-6.47,1.47-14,4.77-22.07,9.6a176.62,176.62,0,0,0-25.65,19.12,275.11,275.11,0,0,0-27.13,27.73,315.65,315.65,0,0,0-26.51,35.77c-4.2,6.63-8.24,13.59-12,20.9a194.62,194.62,0,0,0-10.1,23,103.78,103.78,0,0,0-6,25.22,43.88,43.88,0,0,0,.58,13.18,24.67,24.67,0,0,0,2.29,6.23,17.78,17.78,0,0,0,4.27,5.07,18.07,18.07,0,0,0,6,2.89,24.83,24.83,0,0,0,6.6.65,43.48,43.48,0,0,0,12.92-2.71,104,104,0,0,0,22.93-12.13A194.62,194.62,0,0,0,345,254.89c6.14-5.46,11.88-11.1,17.25-16.82a316.68,316.68,0,0,0,28-34.59,276,276,0,0,0,20.1-33.19,178.08,178.08,0,0,0,12.11-29.6c2.66-9,4-17.14,3.79-23.78a34.13,34.13,0,0,0-1.2-8.69,16.31,16.31,0,0,0-.58-1.75,11.54,11.54,0,0,0-.63-1.56l-.68-1.38c-.24-.42-.5-.8-.73-1.17a11.76,11.76,0,0,0-1.39-1.83c-.22-.25-.4-.5-.59-.7l-.56-.5c-.66-.61-1-.93-1-.93l1,.89.56.5c.2.19.39.43.61.68a11.64,11.64,0,0,1,1.41,1.83c.24.37.51.75.76,1.17s.44.9.68,1.39a10,10,0,0,1,.66,1.56c.18.57.45,1.13.59,1.75a34.82,34.82,0,0,1,1.26,8.74c.23,6.66-1.08,14.8-3.72,23.86a176.62,176.62,0,0,1-12.06,29.68,275.39,275.39,0,0,1-20.07,33.27,315.36,315.36,0,0,1-28.05,34.68c-5.38,5.73-11.12,11.39-17.27,16.86a193.48,193.48,0,0,1-19.8,15.56,104.29,104.29,0,0,1-23,12.2,44.16,44.16,0,0,1-13.07,2.74,24.89,24.89,0,0,1-6.76-.67,16.46,16.46,0,0,1-10.56-8.2,24.94,24.94,0,0,1-2.33-6.38,44,44,0,0,1-.6-13.34,104.33,104.33,0,0,1,6.07-25.34,195,195,0,0,1,10.14-23.05c3.76-7.32,7.81-14.29,12-20.92A314.27,314.27,0,0,1,324,152.06a273.37,273.37,0,0,1,27.22-27.73A176.15,176.15,0,0,1,377,105.24c8.11-4.81,15.67-8.1,22.18-9.54a34.54,34.54,0,0,1,8.77-1,17.85,17.85,0,0,1,1.84.14,12.13,12.13,0,0,1,1.68.24l1.52.32c.47.14.9.31,1.32.44a11.89,11.89,0,0,1,2.12.92c.3.15.58.27.82.41l.62.43Z"/><circle class="cls-7" cx="224.89" cy="245.55" r="4.31"/><path class="cls-7" d="M471.2,108.9a4.31,4.31,0,1,1-4.31-4.31A4.31,4.31,0,0,1,471.2,108.9Z"/><path class="cls-7" d="M255.16,256.68a1.1,1.1,0,1,1-1.09-1.09A1.09,1.09,0,0,1,255.16,256.68Z"/><path class="cls-7" d="M278.55,135.86a1.1,1.1,0,1,1-1.1-1.09A1.1,1.1,0,0,1,278.55,135.86Z"/><path class="cls-7" d="M449.54,194.59a1.1,1.1,0,1,1-1.09-1.09A1.09,1.09,0,0,1,449.54,194.59Z"/><path class="cls-7" d="M464.77,143.51a1.1,1.1,0,1,1-1.09-1.1A1.09,1.09,0,0,1,464.77,143.51Z"/></g><g id="Plant"><path class="cls-7" d="M640.94,307.11a37.29,37.29,0,0,1,16-5.5c2.6-.26,5.45-.19,7.54,1.39a1.55,1.55,0,0,1,.78,1.38,1.63,1.63,0,0,1-.74.94c-6.49,5-16.31,5.58-23.54,1.79"/><path class="cls-7" d="M641.35,306.66a78.75,78.75,0,0,0,10.31-9.07,26.12,26.12,0,0,0,6.46-11.95c.27-1.36.36-2.92-.51-4-8.22,6.42-14.67,14.71-16.26,25"/><path class="cls-7" d="M641,307.05a37.11,37.11,0,0,0-.19-13.54,18.3,18.3,0,0,0-7.2-11.16c-1.42,3.32-.81,7.14.19,10.61A51.47,51.47,0,0,0,641,308"/><path class="cls-7" d="M633,321.48c4.89.59,9.15,3.17,12.8,6.47a24.26,24.26,0,0,1,7.32,12.57c-4.8-.3-8.87-3.68-11.82-7.47s-5-7.95-8.23-11.5"/><path class="cls-7" d="M631.22,323.78a31.56,31.56,0,0,0-3.64-29.85c-2.79,9.91-1.76,21.1,3.64,29.85"/><path class="cls-7" d="M620.58,336.45A22.81,22.81,0,0,1,642.4,349a1.69,1.69,0,0,1,.15,1.71,1.6,1.6,0,0,1-1.45.42c-4.3-.28-8.11-2.86-11.25-5.81s-5.89-6.35-9.37-8.9"/><path class="cls-7" d="M620.92,335.76a40.67,40.67,0,0,0,.41-22.7c-.8-2.92-2.15-6-4.85-7.37a1,1,0,0,0-.74-.13,1,1,0,0,0-.47.54,13.7,13.7,0,0,0-1.14,6.52,41,41,0,0,0,1,6.59c.85,4,1.3,8.36,3.51,11.84a22.44,22.44,0,0,1,1.41,2.6c.42.88.42,1.19.8,1.89"/><path class="cls-7" d="M592.75,340c2.09-7.94-.12-17.56-5.13-24.07-.37-.48-.85-1-1.46-.93-.92.08-1.16,1.31-1.11,2.23a43.47,43.47,0,0,0,7.7,22.77"/><path class="cls-7" d="M590.21,341.7c-9.64,2.51-20.7.07-28.73-5.85A23.26,23.26,0,0,1,577,334c5.19,1.18,9.94,3.51,13.17,7.75"/><path class="cls-7" d="M588.07,336.41c-5.4-8.8-15.75-14.55-26.07-15.07,1.19,4.19,4.64,7.45,8.53,9.42s8.23,2.83,12.51,3.66c1.67.33,4,.68,5,2"/><path class="cls-7" d="M592.22,310.76c-1.47-5-2.94-10.06-3.34-15.27s.34-10.63,3-15.1c5.05,9.76,5.56,21.17.45,30.9"/><path class="cls-7" d="M575.23,302.18c-5.9-10.72-17.94-19.29-30.12-20.49,4.7,11.7,17.52,20.74,30.12,20.49"/><path class="cls-7" d="M578.94,304.28c-8.8,1.34-16.29,7-24.52,10.37a10.93,10.93,0,0,1-5.54,1.06,4.81,4.81,0,0,1-4.17-3.37,4.86,4.86,0,0,1,1.45-4.31,11.93,11.93,0,0,1,4-2.44c9-3.73,18.56-3.82,28-1.56"/><path class="cls-7" d="M584,310.45c-2,.57-2.67,1.6-4.25,2.95A45.88,45.88,0,0,1,561.19,323c-.71.18-1.64.25-2-.4s.08-1.24.48-1.73a25.59,25.59,0,0,1,11.22-7.63c4.3-1.59,8-3.52,13.13-3.11"/><path class="cls-7" d="M589.78,273.18a35.17,35.17,0,0,1-27,9.18,1.92,1.92,0,0,1-1.22-.44c-.68-.74.13-1.88.92-2.5,7.93-6.18,17.54-8.75,27.28-6.24"/><path class="cls-7" d="M583,270.68a37.59,37.59,0,0,0-33.66-5.55c4.23,4.18,10.12,6.43,16,7A50.63,50.63,0,0,0,583,270.68"/><path class="cls-7" d="M585.68,253.56c.77-7.92.27-14.17.82-22.12,0-.64.18-1.4.77-1.63.83-.32,1.52.7,1.79,1.54a25.36,25.36,0,0,1-3.37,22"/><path class="cls-7" d="M586.25,254.43a46.53,46.53,0,0,1-13.12-12.74c-2.59-3.55-4.77-7.79-4.18-12.14a12.55,12.55,0,0,1,9.46,4.69,26.51,26.51,0,0,1,4.82,9.71c1,3.48,1.78,7.06,3,10.48"/><path class="cls-7" d="M573.36,250.85a105.63,105.63,0,0,1-32.27-19c3.85-1.55,8.27-.62,12.12.93,8.81,3.56,16,9.56,20.32,18"/><path class="cls-7" d="M582.62,258.76c-6,.65-12,1.08-17.92.09s-11.3-3.27-16.73-5.56a2,2,0,0,1-1.13-.86,1.29,1.29,0,0,1,.4-1.43,3.43,3.43,0,0,1,1.43-.67c5.9-1.65,12.27-.88,18.08,1.08a83.7,83.7,0,0,1,15.87,7.35"/><path class="cls-7" d="M616.64,273.45c4.06-8.21,3.8-17.78.29-26.24-2.47,3.77-2.77,8.57-2.32,13s1.81,9.09,1.9,13.6"/><path class="cls-7" d="M632.88,265.26a36.61,36.61,0,0,1,27.19,11.58c-5.07.8-10.28-.51-14.89-2.76a75.36,75.36,0,0,1-12.76-8.54"/><path class="cls-7" d="M643.79,261.61c5-.4,9.75-1,14.52.44s9.12,4.79,11.06,9.38a26.17,26.17,0,0,1-13.61-2.57,78.65,78.65,0,0,1-12-7.25"/><path class="cls-7" d="M627.63,261.78c4.47-2.93,9-5.91,14.25-7.12s11.23-.32,14.86,3.6c-4.21,2.47-9.32,2.76-14.2,2.76s-10.87-.06-15.47,1.57"/><path class="cls-7" d="M627.6,262c7.64-7.5,10.53-21,7.46-31.22A47.59,47.59,0,0,0,627.6,262"/><path class="cls-7" d="M606.61,240.77c-1.44-3.35-2.45-6.86-3.75-10.27a29.51,29.51,0,0,0-5.33-9.47,14.09,14.09,0,0,0-9.46-4.9,38.07,38.07,0,0,0,18.35,24.69"/><path class="cls-7" d="M610.41,245.19c2.38-3.28,5.13-7.73,8.37-10.18s7.44-3.93,11.38-3a26.5,26.5,0,0,1-19.75,13.17"/><path class="cls-7" d="M609.65,241a57.22,57.22,0,0,0,3.77-12.2c.63-4.22.24-8.72-1.91-12.4-4.2,7.92-5.55,16.43-2.07,24.69"/><path class="cls-7" d="M606.57,216.44c-2.37-7.85-9.56-13.64-17.33-16.29a6.5,6.5,0,0,0-3-.46,2.65,2.65,0,0,0-2.24,1.87c-.28,1.34.82,2.54,1.86,3.42a59,59,0,0,0,20.75,11.46"/><path class="cls-7" d="M606.49,210c-.31-5.07-.62-10.2-2.27-15s-4.82-9.3-9.44-11.4c-.78,5.11,1.47,10.2,4.19,14.6s6,8.56,7.64,13.47"/><path class="cls-7" d="M606.61,213.5c2-5.72,2.16-13,5.59-18,2.4-3.48,6.23-5.86,8.3-9.55a14.55,14.55,0,0,1-.48,10.84,31.55,31.55,0,0,1-6.34,9.08c-2.54,2.71-4.71,4.75-7.07,7.61"/><path class="cls-7" d="M606.57,382.06c.15,0,.29-38.18.3-85.27s-.11-85.28-.26-85.28-.29,38.17-.3,85.28S606.42,382.06,606.57,382.06Z"/><path class="cls-7" d="M573.2,267.69a9.76,9.76,0,0,0,1.44.54l4,1.33c3.33,1.13,7.91,2.78,12.87,4.81s9.56,3.83,12.2,6.11a8.93,8.93,0,0,1,2.45,3.25c.38.89.45,1.44.5,1.43s0-.14,0-.4a5.72,5.72,0,0,0-.28-1.11,8.66,8.66,0,0,0-2.39-3.46,21.43,21.43,0,0,0-5.29-3.29c-2.12-1-4.47-2-7-3-5-2-9.59-3.63-13-4.67-1.68-.53-3.06-.91-4-1.17A7.48,7.48,0,0,0,573.2,267.69Z"/><path class="cls-7" d="M562.27,240.82s.12.16.4.43l1.22,1.15,4.58,4.16,15.22,13.55c5.94,5.29,11.08,10.35,14.64,14.15,1.78,1.9,3.19,3.48,4.14,4.58l1.11,1.26a2.83,2.83,0,0,0,.41.42,2.36,2.36,0,0,0-.32-.49c-.24-.31-.57-.76-1-1.33-.91-1.14-2.27-2.76-4-4.7a195.43,195.43,0,0,0-14.56-14.3c-6-5.28-11.39-10-15.33-13.44l-4.69-4-1.3-1.07A3.2,3.2,0,0,0,562.27,240.82Z"/><path class="cls-7" d="M590.11,265.49c.15-.07-1.09-2.93-2.33-6.56s-1.83-6.68-2-6.66a22.62,22.62,0,0,0,1.47,6.84,44.93,44.93,0,0,0,1.85,4.59A7,7,0,0,0,590.11,265.49Z"/><path class="cls-7" d="M606.54,288.6a6.24,6.24,0,0,0,.91-1.06l2.35-3c2-2.55,4.69-6.06,7.75-9.91s5.86-7.3,7.89-9.8l2.4-3a6.7,6.7,0,0,0,.83-1.14,7,7,0,0,0-1,1c-.62.66-1.48,1.63-2.54,2.85-2.11,2.44-5,5.85-8,9.71s-5.73,7.41-7.62,10c-1,1.3-1.7,2.37-2.21,3.11A6.88,6.88,0,0,0,606.54,288.6Z"/><path class="cls-7" d="M613.85,279.21a13.49,13.49,0,0,0,3.07-5.74,16.28,16.28,0,0,0,.69-5.78l-.24,0c.11.44.19.67.23.67s0-.26,0-.71l-.24,0a26.69,26.69,0,0,1-1,5.63A43.38,43.38,0,0,1,613.85,279.21Z"/><path class="cls-7" d="M623.3,267.33a9.74,9.74,0,0,1,2.14-1.24,14.21,14.21,0,0,1,5.94-.48,37.48,37.48,0,0,1,6,1,18.68,18.68,0,0,0,2.46.59,8.32,8.32,0,0,0-2.35-1,27.65,27.65,0,0,0-6.05-1.14,13.09,13.09,0,0,0-6.13.66A3.8,3.8,0,0,0,623.3,267.33Z"/><path class="cls-7" d="M625.54,264.45c0,.09,1.24-.5,3.28-1.19A32.81,32.81,0,0,1,645.34,262c2.11.37,3.39.77,3.42.68a2.92,2.92,0,0,0-.87-.37,20.84,20.84,0,0,0-2.48-.7,29.14,29.14,0,0,0-16.73,1.28,22.05,22.05,0,0,0-2.34,1.06A3.23,3.23,0,0,0,625.54,264.45Z"/><path class="cls-7" d="M606.61,252.27A66.75,66.75,0,0,0,609,244a71.36,71.36,0,0,0,1.86-8.44,66.75,66.75,0,0,0-2.39,8.3A66.84,66.84,0,0,0,606.61,252.27Z"/><path class="cls-7" d="M606.46,252.27a39.42,39.42,0,0,1,2.65-5,22.22,22.22,0,0,1,3.9-4,3.76,3.76,0,0,0-1.51.78,12.08,12.08,0,0,0-2.84,2.93A10.92,10.92,0,0,0,606.46,252.27Z"/><path class="cls-7" d="M606.57,361.71c.06,0,.17-.92.6-2.54a36.93,36.93,0,0,1,2.55-6.61c2.64-5.39,7.44-12.23,13.54-19.07,3-3.46,6-6.71,8.45-9.83a69.35,69.35,0,0,0,6-8.71,41.15,41.15,0,0,0,3-6.46c.28-.8.49-1.42.6-1.85a3.34,3.34,0,0,0,.16-.66s-.33.87-1,2.43a48,48,0,0,1-3.18,6.34,73.54,73.54,0,0,1-6.1,8.59c-2.5,3.08-5.43,6.32-8.46,9.78-6.12,6.87-10.91,13.79-13.48,19.27a33.58,33.58,0,0,0-2.41,6.73c-.17.83-.29,1.47-.33,1.91A2.91,2.91,0,0,0,606.57,361.71Z"/><path class="cls-7" d="M576.42,327.65a12.82,12.82,0,0,0,1.58.89,35.49,35.49,0,0,1,4.1,2.71,46.7,46.7,0,0,1,5.38,4.91c1.89,2,3.84,4.31,5.82,6.8,4,5,7.69,9.39,9.91,12.91,1.13,1.74,1.95,3.22,2.49,4.25a12.9,12.9,0,0,0,.87,1.59s0-.16-.15-.45-.27-.71-.53-1.24a40.22,40.22,0,0,0-2.35-4.36c-2.16-3.6-5.84-8.07-9.81-13.05-2-2.49-4-4.81-5.88-6.8a43.11,43.11,0,0,0-5.52-4.87,27.93,27.93,0,0,0-4.23-2.59c-.52-.26-1-.42-1.23-.55A2.29,2.29,0,0,0,576.42,327.65Z"/><path class="cls-7" d="M575.83,338.7a22.36,22.36,0,0,0,3.34.49,43.52,43.52,0,0,1,7.92,1.56,23.62,23.62,0,0,1,7.09,3.72c1.64,1.26,2.41,2.31,2.48,2.25s-.13-.31-.49-.77a12.1,12.1,0,0,0-1.74-1.78,21.31,21.31,0,0,0-7.17-3.95,36,36,0,0,0-8-1.42A19,19,0,0,0,575.83,338.7Z"/><path class="cls-7" d="M595.69,345.5c.17-.1-1.33-2.4-2.5-5.49s-1.35-5.85-1.55-5.82a5.21,5.21,0,0,0,.06,1.79,19.13,19.13,0,0,0,1,4.22,20.64,20.64,0,0,0,1.94,3.87A5.53,5.53,0,0,0,595.69,345.5Z"/><path class="cls-7" d="M566.65,298a2.55,2.55,0,0,0,.54.29l1.57.71c.69.29,1.52.67,2.46,1.16s2,1,3.19,1.68l1.82,1c.64.36,1.26.79,1.93,1.21,1.34.81,2.68,1.82,4.12,2.84a77.42,77.42,0,0,1,8.61,7.57,78.59,78.59,0,0,1,7.28,8.87c1,1.47,1.93,2.85,2.7,4.22.39.68.8,1.32,1.14,2l1,1.86c.65,1.17,1.11,2.29,1.56,3.25s.81,1.8,1.08,2.5.49,1.17.66,1.59a2.31,2.31,0,0,0,.27.54,2.67,2.67,0,0,0-.16-.58l-.57-1.63c-.24-.71-.55-1.57-1-2.55s-.87-2.11-1.5-3.29l-1-1.89c-.34-.65-.74-1.3-1.13-2-.75-1.39-1.7-2.79-2.67-4.28a68.2,68.2,0,0,0-16-16.56c-1.45-1-2.82-2-4.18-2.82-.67-.41-1.31-.84-1.95-1.19l-1.85-1c-1.17-.67-2.29-1.15-3.25-1.62s-1.81-.81-2.51-1.08l-1.61-.62A2.6,2.6,0,0,0,566.65,298Z"/><path class="cls-7" d="M590.52,314a3.83,3.83,0,0,0-1.32-2,8.24,8.24,0,0,0-5.28-2,14.58,14.58,0,0,0-5.57,1.08,7.62,7.62,0,0,0-2.1,1,14,14,0,0,0,2.23-.66,17,17,0,0,1,5.42-.9,8.59,8.59,0,0,1,5.05,1.77A15.93,15.93,0,0,1,590.52,314Z"/><path class="cls-7" d="M594.08,317.66c.16-.08-1.19-2.06-1.5-4.88a20,20,0,0,1,.34-5.1,3.18,3.18,0,0,0-.62,1.42,10.05,10.05,0,0,0,.85,7.32C593.62,317.26,594,317.7,594.08,317.66Z"/><path class="cls-5" d="M632.94,367.18c-.82,14.59-5.22,29.43-12,44.44H591.55C585.1,396.76,581,382,580.28,367.18Z"/><path class="cls-11" d="M585,390.79c0,.16,9.69.28,21.63.28s21.63-.12,21.63-.28-9.68-.27-21.63-.27S585,390.64,585,390.79Z"/><path class="cls-11" d="M585.7,396.08c0,.15,9.08.28,20.27.28s20.28-.13,20.28-.28-9.08-.28-20.28-.28S585.7,395.93,585.7,396.08Z"/><path class="cls-11" d="M620.48,376.76a85.14,85.14,0,0,0,0,13.55,82.11,82.11,0,0,0,0-13.55Z"/><path class="cls-11" d="M604.73,376.76a88,88,0,0,0,0,14,91.27,91.27,0,0,0,0-14Z"/><path class="cls-11" d="M589.93,376.64a94.94,94.94,0,0,0,0,14.31,91.56,91.56,0,0,0,0-14.31Z"/><path class="cls-11" d="M581.21,376.76c0,.15,11.36.28,25.37.28s25.36-.13,25.36-.28-11.35-.27-25.36-.27S581.21,376.61,581.21,376.76Z"/></g><g id="Character"><path class="cls-7" d="M74.05,379,69.3,403.32,60,421.47A2.54,2.54,0,0,0,61.25,425h0a2.54,2.54,0,0,0,2.32-.17c4.47-2.73,20.86-12.86,21.11-14.66.28-2.08,6.71-25.31,6.71-25.31Z"/><path class="cls-5" d="M61.25,425,85,408.5l-.22,1a3.77,3.77,0,0,1-1.42,2.23c-1.93,1.47-7.35,5.41-19.75,13.06a2.54,2.54,0,0,1-2.39.15Z"/><path class="cls-1" d="M81.76,401.35a1.52,1.52,0,0,0-.84,1.86,1.46,1.46,0,0,0,1.84.85,1.62,1.62,0,0,0,.88-2,1.53,1.53,0,0,0-2-.67"/><path class="cls-5" d="M69.1,415.6a7.65,7.65,0,0,0-1.71-2.35,7.44,7.44,0,0,0-2.67-1.14c0-.07.34-.19.93-.15a4,4,0,0,1,2.08.86,4.05,4.05,0,0,1,1.3,1.84C69.2,415.22,69.16,415.59,69.1,415.6Z"/><path class="cls-5" d="M66.67,418.46c-.14.08-.75-.88-1.92-1.51a18,18,0,0,0-2.3-.82,2.81,2.81,0,0,1,2.56.34C66.35,417.2,66.81,418.42,66.67,418.46Z"/><path class="cls-5" d="M73.22,412.15a25,25,0,0,0-2.8-2.53A24.19,24.19,0,0,0,67,408a5.6,5.6,0,0,1,3.71,1.17A5.66,5.66,0,0,1,73.22,412.15Z"/><path class="cls-5" d="M75.28,404.88c-.1.13-1.31-.72-3-1.17s-3.19-.33-3.21-.49a4.93,4.93,0,0,1,3.35,0A4.87,4.87,0,0,1,75.28,404.88Z"/><path class="cls-5" d="M76.86,397.77a13.13,13.13,0,0,0-3.13-1.29,12.39,12.39,0,0,0-3.39.1c0-.06.3-.3.93-.5a5.37,5.37,0,0,1,2.56-.14,5.49,5.49,0,0,1,2.33,1C76.68,397.38,76.9,397.73,76.86,397.77Z"/><path class="cls-5" d="M74.07,395.14a2.12,2.12,0,0,1,.16-.93A6.66,6.66,0,0,1,75.49,392a2.92,2.92,0,0,1,1.5-1.09,1,1,0,0,1,1.08.47,1.68,1.68,0,0,1,.14,1.18,3.59,3.59,0,0,1-3.78,2.57,4.17,4.17,0,0,1-3.53-3,1.46,1.46,0,0,1,.19-1.19,1,1,0,0,1,1.14-.29,3.49,3.49,0,0,1,1.41,1.17,7.18,7.18,0,0,1,1.24,2.25,2.25,2.25,0,0,1,.19.91,11.72,11.72,0,0,0-1.72-2.91,3.37,3.37,0,0,0-1.26-1,.52.52,0,0,0-.62.15,1,1,0,0,0-.08.79,3.72,3.72,0,0,0,3.09,2.57,3.13,3.13,0,0,0,3.24-2.14,1.18,1.18,0,0,0-.07-.82.54.54,0,0,0-.58-.27,2.63,2.63,0,0,0-1.3.89A9.5,9.5,0,0,0,74.07,395.14Z"/><path class="cls-7" d="M155.08,380.9l4,24.44,8.77,18.4a2.54,2.54,0,0,1-1.35,3.46h0a2.54,2.54,0,0,1-2.32-.23c-4.38-2.86-20.48-13.46-20.67-15.27-.23-2.09-6-25.49-6-25.49Z"/><path class="cls-5" d="M166.55,427.2l-23.3-17.14.19,1a3.87,3.87,0,0,0,1.35,2.27c1.89,1.52,7.2,5.62,19.37,13.62a2.54,2.54,0,0,0,2.39.22Z"/><path class="cls-1" d="M146.73,403a1.54,1.54,0,0,1,.79,1.89,1.47,1.47,0,0,1-1.87.79,1.61,1.61,0,0,1-.82-2,1.53,1.53,0,0,1,2-.61"/><path class="cls-5" d="M159,417.61a7.89,7.89,0,0,1,1.78-2.29,7.8,7.8,0,0,1,2.7-1.07c0-.06-.34-.19-.92-.17a4,4,0,0,0-2.11.8,3.87,3.87,0,0,0-1.35,1.81C158.88,417.24,158.91,417.61,159,417.61Z"/><path class="cls-5" d="M161.32,420.55c.14.08.77-.86,2-1.46a23.22,23.22,0,0,1,2.32-.76,2.84,2.84,0,0,0-2.57.28C161.68,419.3,161.18,420.5,161.32,420.55Z"/><path class="cls-5" d="M155,414.05a24.86,24.86,0,0,1,2.87-2.45,27.93,27.93,0,0,1,3.45-1.53,7,7,0,0,0-6.32,4Z"/><path class="cls-5" d="M153.1,406.72c.09.13,1.33-.68,3.07-1.08s3.2-.23,3.23-.39a6.28,6.28,0,0,0-6.3,1.47Z"/><path class="cls-5" d="M151.73,399.58a12.21,12.21,0,0,1,3.16-1.21,12.28,12.28,0,0,1,3.39.2c0-.06-.3-.31-.92-.53a5.49,5.49,0,0,0-4.92.76C151.92,399.19,151.68,399.53,151.73,399.58Z"/><path class="cls-5" d="M154.59,397s0-.34-.14-.93a6.5,6.5,0,0,0-1.18-2.27,2.91,2.91,0,0,0-1.48-1.12,1,1,0,0,0-1.08.43,1.62,1.62,0,0,0-.18,1.17,3.59,3.59,0,0,0,3.7,2.68,4.16,4.16,0,0,0,3.62-2.9,1.45,1.45,0,0,0-.16-1.19,1,1,0,0,0-1.13-.33,3.55,3.55,0,0,0-1.44,1.14,7.31,7.31,0,0,0-1.31,2.21,2.31,2.31,0,0,0-.21.91,11.84,11.84,0,0,1,1.8-2.86,3.26,3.26,0,0,1,1.29-1,.51.51,0,0,1,.61.17,1,1,0,0,1,.06.79,3.73,3.73,0,0,1-3.16,2.48,3.12,3.12,0,0,1-3.18-2.23,1.17,1.17,0,0,1,.09-.82.54.54,0,0,1,.6-.25,2.57,2.57,0,0,1,1.26.93A9.47,9.47,0,0,1,154.59,397Z"/><path class="cls-5" d="M76.37,219.83c-2.26-3.44-11.63,183.38-11,184.45l24.68.35,13.43-99.82,7.31-76.32,11.78,71.72L137,405.31l27,.39L147.32,215.18l-34.93-20Z"/><path class="cls-7" d="M99.93,94.33s-7.56,1.31-10.44,3.83-5.82,8.32-5.82,8.32l-14.38,9.76L82,166.68,71.34,236.39l2.12,6,79.31-1.33,1.52-5.47-8.2-63.45,3.6-42.52L153,112.57l-14.36-6.44s6.57-2,6.88-3.17-14.83-8.9-14.83-8.9S106.83,90,99.93,94.33Z"/><g class="cls-12"><path d="M75.87,203.65c8.95,11.6,21.17,20.14,33.2,28.5,2.54,1.77,5.17,3.57,8.2,4.17a11.51,11.51,0,0,0,11.54-4.85c1.74-2.65,2.33-6,4.39-8.4,1.4-1.63,3.35-2.68,4.85-4.21a20.91,20.91,0,0,0,3.11-4.6l4.92-8.88c-6,0-11.51,2.92-16.9,5.5s-11.39,4.91-17.21,3.57c-8.07-1.84-13.21-10-21-12.95a17.53,17.53,0,0,0-15,1.43"/></g><path class="cls-7" d="M69.29,116.24s-3,3.77-3.61,11.69-5.76,49.48-4,55.45S85.57,214.28,93,213.67l2.77-1,2.64,2.05,11.82-8.86-26-32.79,1.4-47.19S77.53,114.37,69.29,116.24Z"/><path class="cls-5" d="M89.49,98.16s-.24.17-.65.55a11.09,11.09,0,0,0-1.59,1.87c-.64.88-1.28,2-2.07,3.41l-2.89,4.58-.17-.2a7.32,7.32,0,0,1,4.87,0A17.32,17.32,0,0,1,91.9,111a46.3,46.3,0,0,1,8.84,9.51A196.08,196.08,0,0,1,117,148l0,0v.07c-.12,4.12-.25,8.44-.37,12.83-.64,22.31-1.21,42.5-1.63,57.15-.23,7.29-.41,13.2-.54,17.32-.07,2-.13,3.6-.17,4.7q0,.78-.06,1.23a2.64,2.64,0,0,1,0,.41,2.56,2.56,0,0,1,0-.41v-1.23c0-1.1,0-2.68.08-4.71.09-4.12.21-10,.37-17.32.35-14.62.81-34.83,1.48-57.15.13-4.4.25-8.71.37-12.84l0,.12a200.14,200.14,0,0,0-16.14-27.38,46.54,46.54,0,0,0-8.71-9.48,16.77,16.77,0,0,0-4.78-2.66,7,7,0,0,0-4.68,0l-.4.15.23-.36L85,103.88a36.81,36.81,0,0,1,2.14-3.38,10.19,10.19,0,0,1,1.66-1.85A3.84,3.84,0,0,1,89.49,98.16Z"/><path class="cls-5" d="M142.79,104.19c0,.08-1.52.54-3.92,1.5a36.82,36.82,0,0,0-8.78,4.88,57.32,57.32,0,0,0-7.32,6.94l-2.07,2.26c-.5.53-.78.82-.81.79a4.92,4.92,0,0,1,.65-.92c.45-.57,1.12-1.39,2-2.38a48.94,48.94,0,0,1,7.27-7.11,33.78,33.78,0,0,1,9-4.81c1.23-.44,2.24-.74,3-.92A4.41,4.41,0,0,1,142.79,104.19Z"/><path class="cls-5" d="M116.94,148.16a7.45,7.45,0,0,1,.1-1.48c.11-1,.31-2.32.63-4,.62-3.37,1.73-8,3.2-13a117,117,0,0,1,4.45-12.59c.67-1.57,1.29-2.81,1.75-3.65a8.06,8.06,0,0,1,.79-1.26,8.77,8.77,0,0,1-.61,1.35c-.4.86-1,2.12-1.59,3.7-1.28,3.16-2.8,7.62-4.29,12.6s-2.63,9.56-3.34,12.89c-.37,1.66-.62,3-.79,4A8.93,8.93,0,0,1,116.94,148.16Z"/><path class="cls-5" d="M119.4,120.27a94.18,94.18,0,0,1,4-9,98.26,98.26,0,0,1,4.52-8.78,93,93,0,0,1-4,9A91.85,91.85,0,0,1,119.4,120.27Z"/><path class="cls-4" d="M121.87,139l.23-.5a1.65,1.65,0,0,0,.94.31c.4,0,.56-.12.56-.3,0-.53-1.66-.19-1.65-1.25,0-.49.41-.89,1.22-.88a2,2,0,0,1,1,.27l-.21.5a1.62,1.62,0,0,0-.79-.23c-.39,0-.55.14-.55.32,0,.52,1.66.18,1.65,1.24,0,.47-.41.88-1.23.87A2.07,2.07,0,0,1,121.87,139Z"/><path class="cls-4" d="M126.93,138.8v.53l-2.22,0,0-2.86,2.17,0V137l-1.5,0v.62l1.33,0v.51h-1.33v.66Z"/><path class="cls-4" d="M127.28,137.91a1.47,1.47,0,0,1,1.58-1.46A1.44,1.44,0,0,1,130,137l-.43.39a.93.93,0,0,0-.72-.35.92.92,0,1,0,.7,1.51l.42.39a1.45,1.45,0,0,1-1.19.5A1.47,1.47,0,0,1,127.28,137.91Z"/><path class="cls-4" d="M132.58,138.56a3.86,3.86,0,0,1-.12-.42c0-.1-.07-.19-.1-.29v.28c0,.54-.24.76-.65.76s-.63-.24-.62-.78l0-1.58h-.66l0,1.6a1.19,1.19,0,0,0,1.28,1.33,1.21,1.21,0,0,0,1.06-.45A2.35,2.35,0,0,1,132.58,138.56Z"/><path class="cls-4" d="M132.73,137.25l0,1,0,.11a1.23,1.23,0,0,1,.08.23c0,.12.06.24.08.36a2.49,2.49,0,0,1,.06.93,1.3,1.3,0,0,0,.4-1l0-1.6Z"/><path class="cls-4" d="M135.82,140.16l-.54-.81h-.61v.8H134l0-2.86h1.24c.76,0,1.24.42,1.23,1.06a1,1,0,0,1-.61.9l.63.93Zm-.59-2.34h-.54v1h.54c.4,0,.61-.18.62-.49S135.64,137.83,135.23,137.82Z"/><path class="cls-4" d="M137.05,137.31h.66l0,2.86H137Z"/><path class="cls-4" d="M139,137.88l-.92,0v-.54l2.49,0v.54h-.92l0,2.32h-.67Z"/><path class="cls-4" d="M142.22,139.23l0,1h-.66v-1l-1.08-1.86h.7l.75,1.28.79-1.26h.65Z"/><path class="cls-5" d="M135.06,146.71a2.8,2.8,0,0,1-.4-.75c-.22-.5-.51-1.23-.83-2.16a38.5,38.5,0,0,1-1.91-15c.08-1,.17-1.75.27-2.29a2.45,2.45,0,0,1,.2-.83c.08,0,0,1.21-.1,3.14a48.83,48.83,0,0,0,.35,7.52,49.88,49.88,0,0,0,1.54,7.37C134.72,145.55,135.13,146.68,135.06,146.71Z"/><g class="cls-12"><path d="M118.89,138.75c-.42,3.56-1.56,5.31-1.62,8.9,0,.77-1.23,12.89-.51,13.17s4-8.5,4.75-12.9c.55-3.45,1.52-8,2.1-11.44,1.68-10,5.41-15.46,10.64-24.2,1-1.66,4.68-6.17,4.68-6.17-.35-.22-1.82.47-2.84.93-3,1.33-8.23,5.55-8.23,5.55a100.15,100.15,0,0,0-4.24,9.11,130.06,130.06,0,0,0-4.81,17.63"/></g><g class="cls-12"><path d="M85.87,108.23s-3.22,1.76-3.2,3.18A4.11,4.11,0,0,0,85,114.72a27.63,27.63,0,0,0,4,1.48A23.5,23.5,0,0,1,97.09,122a68.24,68.24,0,0,1,10.08,12.92c2.34,3.9,4.5,8.24,8.43,10.54-2.66-4.76-5.42-9.36-8.08-14.12a91.39,91.39,0,0,0-9.19-13.46c-3.46-4.2-9.1-9.29-12.46-9.63"/></g><path class="cls-5" d="M74.39,178.48a1.11,1.11,0,0,1,0-.26,4,4,0,0,1,0-.77,6.14,6.14,0,0,1,4.55-5.34,6.46,6.46,0,0,1,5.54,1.23l-.39.19a50,50,0,0,1,.6-10.06c.5-3.29,1.1-6.39,1.45-9.24s.54-5.42.59-7.59,0-3.93,0-5.15c0-.55,0-1,0-1.4a1.56,1.56,0,0,1,0-.49,1.78,1.78,0,0,1,.07.49c0,.38.07.84.11,1.4.09,1.21.15,3,.14,5.15a66.09,66.09,0,0,1-.49,7.65c-.32,2.87-.91,6-1.41,9.26a52.29,52.29,0,0,0-.64,10l0,.54-.41-.35A6,6,0,0,0,79,172.49a5.79,5.79,0,0,0-3.45,2.38,6.25,6.25,0,0,0-1,2.6C74.41,178.12,74.43,178.48,74.39,178.48Z"/><path class="cls-5" d="M76.91,202.84a2.09,2.09,0,0,1,.31.28l.88.85c.78.74,1.92,1.81,3.46,3.06a51.42,51.42,0,0,0,5.83,4.12,24.54,24.54,0,0,0,3.87,1.95,5.09,5.09,0,0,0,2.23.33,3.25,3.25,0,0,0,2.06-.91l.15-.16.17.13,2.65,2h-.29c3.63-2.74,7.63-5.74,11.81-8.88L110,206l-.21-.26c-3.56-4.44-6.74-8.82-9.7-12.75s-5.61-7.48-7.92-10.39-4.26-5.2-5.66-6.73c-.69-.78-1.26-1.35-1.64-1.74a3.89,3.89,0,0,1-.56-.63,6,6,0,0,1,.63.55c.41.37,1,.92,1.72,1.68,1.45,1.49,3.45,3.75,5.8,6.64s5,6.4,8,10.33,6.16,8.29,9.71,12.71l.21.26.17.22-.21.16-11.83,8.84-.15.12-.15-.12-2.64-2,.32,0a3.62,3.62,0,0,1-2.37,1.05,5.37,5.37,0,0,1-2.41-.37,24.49,24.49,0,0,1-3.93-2,48.88,48.88,0,0,1-5.8-4.23A45.93,45.93,0,0,1,78,204.08l-.83-.91A1.76,1.76,0,0,1,76.91,202.84Z"/><path class="cls-5" d="M86.41,129.32c-.09,0-.47-1.16-1.44-2.9A20.85,20.85,0,0,0,83,123.53a22.34,22.34,0,0,0-3-3,23,23,0,0,0-3.53-2.38,21.5,21.5,0,0,0-3.19-1.39c-1.89-.64-3.13-.8-3.11-.89a2.63,2.63,0,0,1,.87,0,14.55,14.55,0,0,1,2.35.5,18.58,18.58,0,0,1,3.3,1.31,20,20,0,0,1,6.67,5.55,18.88,18.88,0,0,1,1.89,3,14.68,14.68,0,0,1,.91,2.21A3.19,3.19,0,0,1,86.41,129.32Z"/><g class="cls-12"><path d="M134.14,144.15c.33.71,1.5.27,1.64-.28a2.39,2.39,0,0,0-.41-1.62,29.93,29.93,0,0,1-3.29-11.58,28.59,28.59,0,0,0,2.06,13.48"/></g><g class="cls-12"><path d="M74,177.43a6.61,6.61,0,0,1,3-7.54,3.94,3.94,0,0,1,2.14-.55c1.62.12,2.78,1.56,3.73,2.88a6.73,6.73,0,0,0-8.55,5.16"/></g><path class="cls-5" d="M152.09,117a26.06,26.06,0,0,1-1.35,2.57,40.63,40.63,0,0,0-2.72,6.41,41.07,41.07,0,0,0-1.57,6.78,24.67,24.67,0,0,1-.42,2.87,11.79,11.79,0,0,1,.05-2.91,32.29,32.29,0,0,1,4.34-13.33A11.68,11.68,0,0,1,152.09,117Z"/><g class="cls-12"><path d="M145.48,142.34c-.53.56-.68,5.22-.68,5.22,0,5.62.36,8.09.37,13.72a25.76,25.76,0,0,1-.62,6.91,25.27,25.27,0,0,1-1.32,3.45,21.71,21.71,0,0,1-2.18,4.13,23.26,23.26,0,0,1-2.64,2.89A107.54,107.54,0,0,0,126.32,193l-2.2,3.23,21.82-20.47,1.07-2.71.05-.32Z"/></g><path class="cls-7" d="M153,112.57s3.44,1.29,5.23,9c2.07,8.85,4.78,23.58,5.2,29.15.35,4.69,4.95,21.83,1.39,29.38s-20.79,30.86-27.58,31.6l-2.84-.72-3,.51-8.35-9.61.73-2.75a2.75,2.75,0,0,1,0-2.9c1-1.37,22.3-21.39,22.3-21.39s-.82-.11-1-1.49c-.3-2.38,1.77-2.29,1.77-2.29l-1.38-21Z"/><path class="cls-5" d="M154.29,177.28c-.09.13-1.66-1-3.89-1.7s-4.16-.72-4.16-.88a7.84,7.84,0,0,1,4.32.39A7.75,7.75,0,0,1,154.29,177.28Z"/><path class="cls-5" d="M158.6,174.15a19.09,19.09,0,0,0-5.52-2.75,19.59,19.59,0,0,0-6.16-.38,4.31,4.31,0,0,1,1.8-.46,12.12,12.12,0,0,1,4.49.33,12.32,12.32,0,0,1,4,2C158.19,173.54,158.64,174.1,158.6,174.15Z"/><path class="cls-5" d="M146.24,174.7c0,.05-.35,0-.79-.31a1.69,1.69,0,0,1-.56-.8,2.15,2.15,0,0,1,0-1.18,2.51,2.51,0,0,1,.31-.73l0,0a1.5,1.5,0,0,1,1.33-.89c.4,0,.61.09.6.14s-.22.07-.54.17a1.35,1.35,0,0,0-.91.74h0v0a2.78,2.78,0,0,0-.24.6,1.64,1.64,0,0,0,.32,1.58C146,174.46,146.28,174.62,146.24,174.7Z"/><path class="cls-5" d="M145.27,141.32a5,5,0,0,1,.19,1.16c.09.75.19,1.84.29,3.18.22,2.69.43,6.42.61,10.53s.32,7.71.44,10.52c.06,1.26.1,2.33.13,3.19a5.38,5.38,0,0,1,0,1.18,5,5,0,0,1-.19-1.16c-.09-.75-.19-1.84-.29-3.18-.22-2.69-.42-6.42-.6-10.53s-.33-7.71-.45-10.52c0-1.26-.1-2.33-.13-3.19A5.38,5.38,0,0,1,145.27,141.32Z"/><path class="cls-5" d="M146.59,174.55a4.6,4.6,0,0,1-.53.52l-1.58,1.43-5.85,5.3c-2.46,2.27-5.39,5-8.61,8.16-1.61,1.57-3.31,3.24-5,5a5.63,5.63,0,0,0-1.07,1.43,2.62,2.62,0,0,0-.18,1.71,9.67,9.67,0,0,1,.31,2,2,2,0,0,1-1.07,1.86l.1-.41,4.31,4.93,4.24,4.84-.24-.08,3-.51h.07c1.3.16,2.39.76,3.52.57a6.52,6.52,0,0,0,3-1.4,46.54,46.54,0,0,0,4.77-4.45c2.87-3,5.21-5.86,7.14-8.26s3.43-4.35,4.47-5.69l1.2-1.53a4.75,4.75,0,0,1,.44-.51,2.8,2.8,0,0,1-.36.57c-.29.39-.66.92-1.14,1.58-1,1.37-2.46,3.35-4.35,5.78s-4.22,5.32-7.08,8.37a46.66,46.66,0,0,1-4.8,4.53,7,7,0,0,1-3.27,1.5c-1.3.21-2.5-.43-3.63-.55h.07l-3,.52-.15,0-.09-.11L127,206.78l-4.31-4.93-.24-.28.34-.13a1.5,1.5,0,0,0,.75-1.4,9.21,9.21,0,0,0-.3-1.86,3.16,3.16,0,0,1,.23-2,6.19,6.19,0,0,1,1.17-1.56c1.75-1.76,3.44-3.41,5.07-5,3.25-3.12,6.2-5.84,8.7-8.08s4.54-4,6-5.19L146,175A5,5,0,0,1,146.59,174.55Z"/><path class="cls-5" d="M146.08,162.55c0,.14-13.63.06-30.44-.18s-30.44-.55-30.44-.7,13.63-.06,30.45.18S146.08,162.4,146.08,162.55Z"/><path class="cls-5" d="M130.43,170.8s0,.13,0,.38-.07.62-.18,1.09a22.14,22.14,0,0,1-1.2,3.89,24,24,0,0,1-20.77,15,21,21,0,0,1-4.07-.1c-.48,0-.84-.13-1.09-.17s-.38-.08-.37-.1a39.76,39.76,0,0,0,5.5,0A24.51,24.51,0,0,0,128.69,176,41.93,41.93,0,0,0,130.43,170.8Z"/><path class="cls-5" d="M101.26,212.59c-.09.11-.66-.21-1.18-.81s-.74-1.21-.62-1.28.53.38,1,.94S101.35,212.47,101.26,212.59Z"/><path class="cls-5" d="M105.07,209.61c-.11.08-.54-.3-1-.86s-.66-1.08-.54-1.17.55.3,1,.86S105.19,209.52,105.07,209.61Z"/><path class="cls-5" d="M127.19,201.59c.07.13-.5.55-1.22,1s-1.32.84-1.41.73.38-.67,1.12-1.16S127.13,201.46,127.19,201.59Z"/><path class="cls-5" d="M130,204.38c.12.07-.23.83-.95,1.54s-1.49,1.05-1.56.93.52-.63,1.19-1.3S129.91,204.3,130,204.38Z"/><path class="cls-5" d="M132.75,207.71c.1.09-.34.73-1.08,1.31s-1.46.88-1.53.75.5-.59,1.21-1.15S132.64,207.61,132.75,207.71Z"/><path class="cls-5" d="M94,101.28c.15-.06,1.34,2.94,3.38,6.35s4.1,5.89,4,6a7.39,7.39,0,0,1-1.48-1.53,32.72,32.72,0,0,1-2.94-4.2,32.33,32.33,0,0,1-2.29-4.59A7.6,7.6,0,0,1,94,101.28Z"/><path class="cls-5" d="M154.29,235.61a5.17,5.17,0,0,1-.85,0l-2.42,0-8.91.08c-7.52.09-17.91.38-29.38.73s-21.88.57-29.4.57c-3.77,0-6.81,0-8.91-.09L72,236.9a4.6,4.6,0,0,1-.84-.06,5,5,0,0,1,.84,0l2.43,0,8.9-.08c7.53-.09,17.91-.37,29.39-.72s21.87-.58,29.4-.57c3.76,0,6.81,0,8.91.08l2.42.07A4.67,4.67,0,0,1,154.29,235.61Z"/><path class="cls-7" d="M133.57,102.92c-.12.1-1.34-1.3-3.26-2.47s-3.7-1.68-3.66-1.83a9.65,9.65,0,0,1,6.92,4.3Z"/><path class="cls-13" d="M127.09,213.42a2.22,2.22,0,0,0,2.1,1c.82,0,1.61-.29,2.42-.34a2.3,2.3,0,0,1,2.14.9,1.88,1.88,0,0,1-.07,1.85,3.68,3.68,0,0,1-1.4,1.31,7.61,7.61,0,0,1-8.64-.84"/><path class="cls-13" d="M108.76,225.84a47.91,47.91,0,0,0,7.73,6.26,3,3,0,0,0,2,.69c.73-.12,1.3-1.06.82-1.61a2.19,2.19,0,0,0,3.47-2.35.07.07,0,0,1,.09-.09,2.47,2.47,0,0,0,2.2-.15,1.87,1.87,0,0,0,.82-2.1c.74,1,2.52.6,3.09-.51a3.42,3.42,0,0,0-.58-3.5,17.84,17.84,0,0,0-2.77-2.5,5.5,5.5,0,0,1-2.08-3"/><path class="cls-14" d="M119.66,231.59A5.37,5.37,0,0,1,117,229.9a5.25,5.25,0,0,1-1.67-2.66c.13-.07.85,1.11,2,2.29S119.74,231.46,119.66,231.59Z"/><path class="cls-14" d="M123.4,229.27a8.3,8.3,0,0,1-4-4c.12-.08.93.9,2,2S123.48,229.15,123.4,229.27Z"/><path class="cls-14" d="M126.66,227a5.08,5.08,0,0,1-2.27-1.53,5,5,0,0,1-1.59-2.23c.12-.08.89.84,2,1.86S126.75,226.84,126.66,227Z"/><path class="cls-13" d="M102.2,203.24s-.3-1.27,3-.86a38.31,38.31,0,0,0,8.44.54c3.69-.19,9.68-1.24,9.68-1.24l9.63,8.47s-9.85,8.65-12.8,10.19-8.94,5.39-12.36,5.2c-2.59-.14-2.83-1.43-2.83-1.43s-2.53-1.74-2.15-2.59c0,0-3-.16-2.45-2.47,0,0-2.14-.39-2.49-1.62s1.27-2.66,1.9-3.28c1-1,9.76-7.42,9.8-7.6C109.55,206.55,102.06,205.81,102.2,203.24Z"/><path class="cls-14" d="M108.41,212.59a25.25,25.25,0,0,1-3.94,3.37,26.32,26.32,0,0,1-4.25,2.95,25.54,25.54,0,0,1,3.94-3.36A26,26,0,0,1,108.41,212.59Z"/><path class="cls-14" d="M113.05,213.49a6.12,6.12,0,0,1-1.15,1.57,25.59,25.59,0,0,1-7.37,5.76,6.06,6.06,0,0,1-1.8.74c-.08-.15,2.58-1.45,5.43-3.69S112.93,213.39,113.05,213.49Z"/><path class="cls-14" d="M117.19,216.46a6.46,6.46,0,0,1-1.3,1.76,18.58,18.58,0,0,1-9,5.42,6.53,6.53,0,0,1-2.17.32,32.73,32.73,0,0,0,6.79-2.83A33.74,33.74,0,0,0,117.19,216.46Z"/><path class="cls-14" d="M129,213.7a4.13,4.13,0,0,1-.73.76c-.49.45-1.22,1.09-2.15,1.84a61.92,61.92,0,0,1-7.7,5.32c-1.58.92-3.12,1.74-4.55,2.43a16.89,16.89,0,0,1-4,1.48,6.34,6.34,0,0,1-2.87,0,2.42,2.42,0,0,1-1-.41,7.11,7.11,0,0,0,3.75,0,18.36,18.36,0,0,0,3.84-1.55c1.4-.71,2.93-1.53,4.49-2.45a80.49,80.49,0,0,0,7.74-5.16C127.75,214.59,128.89,213.64,129,213.7Z"/><path class="cls-13" d="M111.31,45.58A17.27,17.27,0,0,0,92.49,61.49c-.6,8-1.17,16.69-1.18,21.06,0,9.38,9.35,11,9.35,11s-.27,2.78-.58,6.22a12.37,12.37,0,0,0,11.57,13.45h0a12.36,12.36,0,0,0,13.08-11.61L127,63.81a17.28,17.28,0,0,0-15.66-18.23Z"/><path class="cls-14" d="M100.65,93.39a21.79,21.79,0,0,0,12.28-3.3s-3.14,6.79-12.49,5.81Z"/><path class="cls-13" d="M126.06,67c.16-.06,6.48-1.81,6.18,4.6s-6.67,4.79-6.68,4.61S126.06,67,126.06,67Z"/><path class="cls-14" d="M127.63,73.89s.11.08.3.18a1.12,1.12,0,0,0,.83.05,2.73,2.73,0,0,0,1.39-2.42,3.67,3.67,0,0,0-.23-1.61,1.33,1.33,0,0,0-.8-.9.58.58,0,0,0-.68.28c-.09.17-.06.3-.09.31s-.13-.11-.07-.37a.65.65,0,0,1,.27-.39.88.88,0,0,1,.63-.14,1.61,1.61,0,0,1,1.12,1.05,3.8,3.8,0,0,1,.3,1.81,2.89,2.89,0,0,1-1.76,2.69,1.19,1.19,0,0,1-1-.22C127.64,74.05,127.61,73.9,127.63,73.89Z"/><path class="cls-5" d="M96.13,66.6A1.35,1.35,0,0,0,97.41,68a1.27,1.27,0,0,0,1.39-1.19,1.34,1.34,0,0,0-1.27-1.37A1.28,1.28,0,0,0,96.13,66.6Z"/><path class="cls-5" d="M94.86,64.87c.16.17,1.19-.56,2.63-.54s2.49.76,2.65.59-.09-.4-.55-.74a3.69,3.69,0,0,0-2.11-.69,3.61,3.61,0,0,0-2.1.65C94.93,64.47,94.78,64.79,94.86,64.87Z"/><path class="cls-5" d="M110.58,67a1.35,1.35,0,0,0,1.27,1.37,1.28,1.28,0,0,0,1.4-1.19A1.33,1.33,0,0,0,112,65.81,1.28,1.28,0,0,0,110.58,67Z"/><path class="cls-5" d="M109,65.34c.16.18,1.19-.56,2.63-.54s2.49.76,2.65.59-.09-.39-.55-.74a3.64,3.64,0,0,0-2.11-.68,3.54,3.54,0,0,0-2.1.64C109.1,65,109,65.26,109,65.34Z"/><path class="cls-5" d="M103.64,76a9.76,9.76,0,0,0-2.34-.46c-.36,0-.71-.12-.77-.37a1.94,1.94,0,0,1,.26-1.09l1.13-2.79c1.57-4,2.71-7.24,2.55-7.3s-1.56,3.11-3.13,7.08l-1.08,2.8a2.13,2.13,0,0,0-.22,1.45.94.94,0,0,0,.6.54,2.21,2.21,0,0,0,.63.1A9.54,9.54,0,0,0,103.64,76Z"/><path class="cls-5" d="M107.36,60.12c.17.38,1.6.1,3.3.19s3.1.46,3.3.1c.09-.18-.18-.53-.75-.87a5.46,5.46,0,0,0-2.49-.69,5.37,5.37,0,0,0-2.53.47C107.58,59.61,107.29,59.93,107.36,60.12Z"/><path class="cls-5" d="M94.32,59.55c.25.33,1.24,0,2.44,0s2.2.25,2.44-.09c.1-.16,0-.49-.49-.81a3.35,3.35,0,0,0-2-.57,3.47,3.47,0,0,0-2,.63C94.35,59.06,94.21,59.39,94.32,59.55Z"/><path class="cls-5" d="M126.8,66.74a10.62,10.62,0,0,1-.21,3.08,3.31,3.31,0,0,1-1.67,2.31c-1.62.79-3.63-.48-4.32-2.14s-.47-3.54-.28-5.33a25.78,25.78,0,0,0,0-7.34A10.49,10.49,0,0,0,116.88,51a6.68,6.68,0,0,0-6.9-1.1c-1.37.65-2.41,1.83-3.69,2.64a5.63,5.63,0,0,1-3.89.92c-1.35-.23-3.17-1.17-2.94-2.52.53-3.13-1.64-.5-1.5-1,.24-.89,2.05-2.41,2.8-3a9.8,9.8,0,0,1,4.31-1.76,22.33,22.33,0,0,1,12.25,1.38A15.9,15.9,0,0,1,126,54.89c1.8,4.41,1.52,7.09.91,11.85"/><path class="cls-5" d="M106.69,80.22c0,.29-1.18.59-2.67.67s-2.72-.09-2.74-.38,1.19-.58,2.68-.66S106.68,79.94,106.69,80.22Z"/><path class="cls-5" d="M126.78,67.3a6.34,6.34,0,0,1-2-.43c-1.19-.35-2.79-1-4.54-1.66l-4.46-1.79a10.2,10.2,0,0,1-1.85-.78,6.32,6.32,0,0,1,2,.43c1.19.35,2.79.95,4.54,1.66l4.46,1.79A9.86,9.86,0,0,1,126.78,67.3Z"/><path class="cls-5" d="M100.1,61.76a1.92,1.92,0,0,1,1.68,1.6,8,8,0,0,1-5.84,8.94A4.69,4.69,0,0,1,92.28,72c-1.49-.95-2-2.9-2.08-4.66a6,6,0,0,1,.64-3.74,5.39,5.39,0,0,1,4.32-2c1.64-.08,4.94.2,4.94.2Z"/><path class="cls-5" d="M107.64,62a1.94,1.94,0,0,0-1.74,1.57,8.07,8.07,0,0,0,5.64,9.21,4.73,4.73,0,0,0,3.71-.24c1.54-.91,2.06-2.87,2.24-4.65a6,6,0,0,0-.54-3.8,5.43,5.43,0,0,0-4.31-2.14,50,50,0,0,0-5,.05Z"/><path class="cls-5" d="M109.16,62.26a29.87,29.87,0,0,1-5.51.15A29.64,29.64,0,0,1,98.16,62a29.87,29.87,0,0,1,5.51-.15A29.64,29.64,0,0,1,109.16,62.26Z"/><path class="cls-2" d="M126.42,104.82s0-.06,0-.16a1.94,1.94,0,0,1,0-.46,4.73,4.73,0,0,1,.62-1.66,11.54,11.54,0,0,0,1.12-2.5,12.23,12.23,0,0,0,.43-3.59c0-1.36-.17-2.82-.27-4.45a2.26,2.26,0,0,1,.31-1.29,1.24,1.24,0,0,1,1.31-.61,1.08,1.08,0,0,1,.64.49.81.81,0,0,1,0,.87,1.26,1.26,0,0,1-1.51.29,2.27,2.27,0,0,1-1.19-2.62,2.24,2.24,0,0,1,.89-1.29,1.59,1.59,0,0,1,.78-.31,1,1,0,0,1,.88.29.92.92,0,0,1,.21,1,.94.94,0,0,1-.83.51,2,2,0,0,1-1.54-.67A2,2,0,0,1,127.7,87a2,2,0,0,1,1-1.42,1.9,1.9,0,0,1,1.44-.26,1.42,1.42,0,0,1,.68.39.84.84,0,0,1-.38,1.43,1.58,1.58,0,0,1-.74.07,2.78,2.78,0,0,1-1.26-.56,2.21,2.21,0,0,1-.82-2.46,1.94,1.94,0,0,1,2.16-1.28,1.2,1.2,0,0,1,1,1,.84.84,0,0,1-.28.71,1.06,1.06,0,0,1-.64.28,1.69,1.69,0,0,1-1.18-.43,2.81,2.81,0,0,1-.74-.9,1.68,1.68,0,0,1,.47-2.14,1.2,1.2,0,0,1,1.86.73l0,.14-.12.06a1.76,1.76,0,0,1-2.43-.87,1.49,1.49,0,0,1,.11-1.29,1.84,1.84,0,0,1,.9-.8,1.47,1.47,0,0,1,1.13,0,.83.83,0,0,1,.56.91.58.58,0,0,1-.36.44.66.66,0,0,1-.52,0A1,1,0,0,1,129,80a7.85,7.85,0,0,1,0-2.38,3.34,3.34,0,0,1,.17-.81,12.16,12.16,0,0,0,.08,3.13.73.73,0,0,0,.41.52.33.33,0,0,0,.5-.22c.11-.52-.73-.83-1.28-.55a1.32,1.32,0,0,0-.79,1.64,1.36,1.36,0,0,0,1.86.66l-.09.21a.8.8,0,0,0-1.22-.44,1.26,1.26,0,0,0-.3,1.58,1.85,1.85,0,0,0,1.46,1.07c.28,0,.53-.25.49-.47a.73.73,0,0,0-.59-.54,1.47,1.47,0,0,0-1.58,1,1.71,1.71,0,0,0,.67,1.88,2.37,2.37,0,0,0,1,.45c.34.05.74-.07.78-.29s-.21-.51-.54-.59a1.4,1.4,0,0,0-1,.2,1.51,1.51,0,0,0-.73,1,1.54,1.54,0,0,0,1.53,1.69c.43,0,.52-.31.28-.6s-.68-.16-1,.08a1.75,1.75,0,0,0-.7,1,1.79,1.79,0,0,0,.9,2c.33.14.79.1.93-.12s0-.56-.35-.65A.82.82,0,0,0,129,91a1.84,1.84,0,0,0-.25,1c.08,1.57.23,3.08.21,4.45a12.76,12.76,0,0,1-.52,3.68,10.48,10.48,0,0,1-1.23,2.51,5.4,5.4,0,0,0-.69,1.58C126.43,104.6,126.44,104.82,126.42,104.82Z"/><path class="cls-2" d="M130.1,74.13a3.47,3.47,0,0,0-.42-1.38,1.62,1.62,0,0,0-1.16-.8,1.26,1.26,0,0,0-1.27.81,1.3,1.3,0,0,0,.47,1.42l0,0h0l.11.07c.17.11.41.12.57.22a1.16,1.16,0,0,1,.44,1.07c0,.41-.12.81-.09,1.21s.19.64.48.64.44-.24.54-.47A5.12,5.12,0,0,0,130.1,74.13Z"/><path class="cls-4" d="M100.52,95s-2,2.95-2.18,4.86c-.11,1.27.74,6.21,1.32,9.4a13.41,13.41,0,0,0,2.1,5.11l1.3,1.9a45.44,45.44,0,0,1,4.68,8.82c2.54,6.41,6.8,17.21,7,17.73a41.8,41.8,0,0,0,1.89,3.77l2.26-27,6.8-13.47a9.16,9.16,0,0,0,1-3.77l.15-4.33a6,6,0,0,0-1.57-4.3h0l-.34,3.89-11.28,10.25-13.08-8.81Z"/><path class="cls-5" d="M113,108a7,7,0,0,0-2.36,2.23,25,25,0,0,0-2.73,7.45c-.08.3-.15.6-.22.88l-.11.4-.31-.26a51.19,51.19,0,0,1-5.29-5.29,20.52,20.52,0,0,1-2-2.33,16.77,16.77,0,0,1,2.21,2.09,73.74,73.74,0,0,0,5.36,5.13l-.42.13.22-.87c.75-3.06,1.68-5.84,2.94-7.54a5.43,5.43,0,0,1,1.81-1.7A2,2,0,0,1,113,108Z"/><path class="cls-5" d="M121.05,115.28a32.06,32.06,0,0,1-2.54,4.13l-.41.63,0-.76a14.85,14.85,0,0,0-.69-3.67,20.42,20.42,0,0,0-2-5.68,16.61,16.61,0,0,0-1.6-1.9,1.84,1.84,0,0,1,.6.34,6.12,6.12,0,0,1,1.31,1.36,17.48,17.48,0,0,1,2.2,5.75,13.75,13.75,0,0,1,.66,3.8l-.42-.13A32.82,32.82,0,0,1,121.05,115.28Z"/><path class="cls-5" d="M115.89,144.79c-.14,0-.79-8.17-1.43-18.25s-1.06-18.28-.92-18.29.79,8.16,1.43,18.25S116,144.78,115.89,144.79Z"/><path class="cls-2" d="M90.69,67.31A2.54,2.54,0,0,1,90.57,65C91,63.65,92,63,92.07,63.16s-.64.82-1,2S90.84,67.28,90.69,67.31Z"/><path class="cls-2" d="M107.18,67.88c-.1.09-.76-.76-.75-2s.65-2.11.75-2-.25.92-.23,2S107.32,67.8,107.18,67.88Z"/></g></g></svg>